<svg xmlns="http://www.w3.org/2000/svg" width="45" height="45" viewBox="0 0 45 45">
  <g id="AI_ML_Development_" data-name="AI/ML Development " transform="translate(-69 -473)">
    <rect id="Rectangle_1665" data-name="Rectangle 1665" width="45" height="45" transform="translate(69 473)" fill="none"/>
    <g id="ai" transform="translate(71.465 475.465)">
      <path id="Path_14322" data-name="Path 14322" d="M111.732,90.759v18.394a2.759,2.759,0,0,1-2.759,2.759H90.579a2.759,2.759,0,0,1-2.759-2.759V90.759A2.759,2.759,0,0,1,90.579,88h18.394A2.759,2.759,0,0,1,111.732,90.759Zm-2.759,16.555V92.6a1.839,1.839,0,0,0-1.839-1.839H92.419A1.839,1.839,0,0,0,90.579,92.6v14.715a1.839,1.839,0,0,0,1.839,1.839h14.715A1.839,1.839,0,0,0,108.973,107.314Zm0,0" transform="translate(-79.743 -79.907)" fill="#ffbf75"/>
      <g id="Group_6531" data-name="Group 6531">
        <path id="Path_14325" data-name="Path 14325" d="M127.7,112H114.04a2.222,2.222,0,0,0-2.22,2.22v13.659a2.222,2.222,0,0,0,2.22,2.22H127.7a2.222,2.222,0,0,0,2.22-2.22V114.22A2.222,2.222,0,0,0,127.7,112Zm1.2,15.878a1.2,1.2,0,0,1-1.2,1.2H114.04a1.2,1.2,0,0,1-1.2-1.2V114.22a1.2,1.2,0,0,1,1.2-1.2H127.7a1.2,1.2,0,0,1,1.2,1.2Zm0,0" transform="translate(-100.836 -100.999)" fill="#697b93" stroke="#697b93" stroke-width="0.7"/>
        <path id="Path_14326" data-name="Path 14326" d="M103.525,82H85.131a3.315,3.315,0,0,0-3.311,3.311V103.7a3.315,3.315,0,0,0,3.311,3.311h18.394a3.315,3.315,0,0,0,3.311-3.311V85.311A3.315,3.315,0,0,0,103.525,82Zm2.207,21.7a2.21,2.21,0,0,1-2.207,2.207H85.131a2.21,2.21,0,0,1-2.207-2.207V85.311A2.21,2.21,0,0,1,85.131,83.1h18.394a2.21,2.21,0,0,1,2.207,2.207Zm0,0" transform="translate(-74.295 -74.458)" fill="#697b93" stroke="#697b93" stroke-width="0.7"/>
        <path id="Path_14327" data-name="Path 14327" d="M233.993,373.641a.552.552,0,0,0-.552.552v4.6a.552.552,0,0,0,1.1,0v-4.6A.552.552,0,0,0,233.993,373.641Zm0,0" transform="translate(-211.971 -339.277)" fill="#697b93" stroke="#697b93" stroke-width="0.7"/>
        <path id="Path_14328" data-name="Path 14328" d="M190.751,373.641a.552.552,0,0,0-.552.552v4.6a.552.552,0,0,0,1.1,0v-4.6A.552.552,0,0,0,190.751,373.641Zm0,0" transform="translate(-172.706 -339.277)" fill="#697b93" stroke="#697b93" stroke-width="0.7"/>
        <path id="Path_14329" data-name="Path 14329" d="M147.521,373.641a.552.552,0,0,0-.552.552v4.6a.552.552,0,0,0,1.1,0v-4.6A.552.552,0,0,0,147.521,373.641Zm0,0" transform="translate(-133.452 -339.277)" fill="#697b93" stroke="#697b93" stroke-width="0.7"/>
        <path id="Path_14330" data-name="Path 14330" d="M277.224,373.641a.552.552,0,0,0-.552.552v4.6a.552.552,0,0,0,1.1,0v-4.6A.552.552,0,0,0,277.224,373.641Zm0,0" transform="translate(-251.226 -339.277)" fill="#697b93" stroke="#697b93" stroke-width="0.7"/>
        <path id="Path_14331" data-name="Path 14331" d="M191.3,5.15V.552a.552.552,0,1,0-1.1,0v4.6a.552.552,0,1,0,1.1,0Zm0,0" transform="translate(-172.706)" fill="#697b93" stroke="#697b93" stroke-width="0.7"/>
        <path id="Path_14332" data-name="Path 14332" d="M234.545,5.15V.552a.552.552,0,1,0-1.1,0v4.6a.552.552,0,1,0,1.1,0Zm0,0" transform="translate(-211.971)" fill="#697b93" stroke="#697b93" stroke-width="0.7"/>
        <path id="Path_14333" data-name="Path 14333" d="M277.776,5.15V.552a.552.552,0,1,0-1.1,0v4.6a.552.552,0,1,0,1.1,0Zm0,0" transform="translate(-251.226)" fill="#697b93" stroke="#697b93" stroke-width="0.7"/>
        <path id="Path_14334" data-name="Path 14334" d="M148.073,5.15V.552a.552.552,0,0,0-1.1,0v4.6a.552.552,0,0,0,1.1,0Zm0,0" transform="translate(-133.452)" fill="#697b93" stroke="#697b93" stroke-width="0.7"/>
        <path id="Path_14335" data-name="Path 14335" d="M378.791,190.2h-4.6a.552.552,0,1,0,0,1.1h4.6a.552.552,0,0,0,0-1.1Zm0,0" transform="translate(-339.277 -172.706)" fill="#697b93" stroke="#697b93" stroke-width="0.7"/>
        <path id="Path_14336" data-name="Path 14336" d="M378.791,233.441h-4.6a.552.552,0,1,0,0,1.1h4.6a.552.552,0,0,0,0-1.1Zm0,0" transform="translate(-339.277 -211.971)" fill="#697b93" stroke="#697b93" stroke-width="0.7"/>
        <path id="Path_14337" data-name="Path 14337" d="M378.791,276.672h-4.6a.552.552,0,1,0,0,1.1h4.6a.552.552,0,0,0,0-1.1Zm0,0" transform="translate(-339.277 -251.226)" fill="#697b93" stroke="#697b93" stroke-width="0.7"/>
        <path id="Path_14338" data-name="Path 14338" d="M378.791,146.969h-4.6a.552.552,0,0,0,0,1.1h4.6a.552.552,0,0,0,0-1.1Zm0,0" transform="translate(-339.277 -133.452)" fill="#697b93" stroke="#697b93" stroke-width="0.7"/>
        <path id="Path_14339" data-name="Path 14339" d="M5.15,233.441H.552a.552.552,0,1,0,0,1.1h4.6a.552.552,0,1,0,0-1.1Zm0,0" transform="translate(0 -211.971)" fill="#697b93" stroke="#697b93" stroke-width="0.7"/>
        <path id="Path_14340" data-name="Path 14340" d="M5.15,190.2H.552a.552.552,0,1,0,0,1.1h4.6a.552.552,0,1,0,0-1.1Zm0,0" transform="translate(0 -172.706)" fill="#697b93" stroke="#697b93" stroke-width="0.7"/>
        <path id="Path_14341" data-name="Path 14341" d="M5.15,146.969H.552a.552.552,0,0,0,0,1.1h4.6a.552.552,0,0,0,0-1.1Zm0,0" transform="translate(0 -133.452)" fill="#697b93" stroke="#697b93" stroke-width="0.7"/>
        <path id="Path_14342" data-name="Path 14342" d="M5.15,276.672H.552a.552.552,0,1,0,0,1.1h4.6a.552.552,0,1,0,0-1.1Zm0,0" transform="translate(0 -251.226)" fill="#697b93" stroke="#697b93" stroke-width="0.7"/>
        <path id="Path_14343" data-name="Path 14343" d="M178.339,171.217h0a.738.738,0,0,0-.731-.4.712.712,0,0,0-.722.4l-2.013,6.554a.319.319,0,0,0-.013.106c0,.3.416.491.714.491a.383.383,0,0,0,.419-.257l.4-1.4h2.43l.406,1.405a.38.38,0,0,0,.408.256c.335,0,.724-.214.724-.491a.33.33,0,0,0-.022-.1Zm.218,4.57h-1.9l.95-3.26Zm0,0" transform="translate(-158.778 -155.11)" fill="#697b93" stroke="#697b93" stroke-width="0.7"/>
        <path id="Path_14344" data-name="Path 14344" d="M243.372,171.48c-.34,0-.552.149-.552.39v6.7c0,.236.227.4.552.4s.552-.161.552-.4v-6.7C243.924,171.626,243.717,171.48,243.372,171.48Zm0,0" transform="translate(-220.488 -155.709)" fill="#697b93" stroke="#697b93" stroke-width="0.7"/>
      </g>
    </g>
  </g>
</svg>
