<svg xmlns="http://www.w3.org/2000/svg" width="45" height="45" viewBox="0 0 45 45">
  <g id="AR_VR_Development_" data-name="AR/VR Development " transform="translate(-68 -383)">
    <rect id="Rectangle_1664" data-name="Rectangle 1664" width="45" height="45" transform="translate(68 383)" fill="none"/>
    <g id="Page-1" transform="translate(72 387)">
      <g id="_008---AR-Visor" data-name="008---AR-Visor" transform="translate(0)">
        <path id="Shape" d="M31.361,24.57c-.012,0-.018.006-.031.006a.037.037,0,0,0-.025.006,5.532,5.532,0,0,1-5.511-2.048,2.641,2.641,0,0,0-2.46-1.359,2.641,2.641,0,0,0-2.46,1.359,5.532,5.532,0,0,1-5.511,2.048.037.037,0,0,0-.025-.006c-.012,0-.018-.006-.031-.006-2.651-.517-2.737-4.589-2.577-6.785a2.707,2.707,0,0,1,1.187-2.116A19.362,19.362,0,0,1,23.334,13a19.363,19.363,0,0,1,9.417,2.67,2.706,2.706,0,0,1,1.187,2.116c.16,2.2.074,6.268-2.577,6.785Z" transform="translate(-4.88 -5.003)" fill="#31c0ff" stroke="#697b93" stroke-width="0.5"/>
        <path id="Shape-2" data-name="Shape" d="M40.027,17.806A2.707,2.707,0,0,0,38.84,15.69,18.922,18.922,0,0,0,28.5,13.066a19.007,19.007,0,0,1,8.495,2.624,2.707,2.707,0,0,1,1.187,2.116c.16,2.2.074,6.268-2.577,6.785-.012,0-.018.006-.031.006a.037.037,0,0,0-.025.006c-.07.012-.133.016-.2.026a5.6,5.6,0,0,0,2.1-.038C40.1,24.074,40.187,20,40.027,17.806Z" transform="translate(-10.969 -5.024)" fill="#13a4e4"/>
        <path id="Shape-3" data-name="Shape" d="M16.615,22.073A.615.615,0,0,1,16,21.458v-.923a.615.615,0,0,1,.165-.419,3.761,3.761,0,0,1,1.983-1.107.615.615,0,1,1,.249,1.2,2.545,2.545,0,0,0-1.169.579v.666a.615.615,0,0,1-.613.615Z" transform="translate(-6.158 -7.31)" fill="#f5f5f5"/>
        <path id="Shape-4" data-name="Shape" d="M.615,6.766A.615.615,0,0,1,0,6.151V1.845A1.845,1.845,0,0,1,1.845,0H6.151a.615.615,0,0,1,0,1.23H1.845a.615.615,0,0,0-.615.615V6.151A.615.615,0,0,1,.615,6.766Z" transform="translate(0)" fill="#697b93" stroke="#697b93" stroke-width="0.5"/>
        <path id="Shape-5" data-name="Shape" d="M55.151,6.766a.615.615,0,0,1-.615-.615V1.845a.615.615,0,0,0-.615-.615H49.615a.615.615,0,1,1,0-1.23h4.306a1.845,1.845,0,0,1,1.845,1.845V6.151A.615.615,0,0,1,55.151,6.766Z" transform="translate(-18.859)" fill="#697b93" stroke="#697b93" stroke-width="0.5"/>
        <path id="Shape-6" data-name="Shape" d="M6.151,43.766H1.845A1.845,1.845,0,0,1,0,41.921V37.615a.615.615,0,1,1,1.23,0v4.306a.615.615,0,0,0,.615.615H6.151a.615.615,0,1,1,0,1.23Z" transform="translate(0 -14.241)" fill="#697b93" stroke="#697b93" stroke-width="0.5"/>
        <path id="Shape-7" data-name="Shape" d="M53.921,43.766H49.615a.615.615,0,1,1,0-1.23h4.306a.615.615,0,0,0,.615-.615V37.615a.615.615,0,1,1,1.23,0v4.306A1.845,1.845,0,0,1,53.921,43.766Z" transform="translate(-18.859 -14.241)" fill="#697b93" stroke="#697b93" stroke-width="0.5"/>
        <g id="Group_6530" data-name="Group 6530" transform="translate(2.46 2.46)">
          <path id="Shape-8" data-name="Shape" d="M5.23,5.23H4.615a.615.615,0,0,1,0-1.23H5.23a.615.615,0,0,1,0,1.23Z" transform="translate(-4 -4)" fill="#31c0ff" stroke="#31c0ff" stroke-width="0.5"/>
          <path id="Shape-9" data-name="Shape" d="M12.076,5.23H9.615a.615.615,0,0,1,0-1.23h2.46a.615.615,0,0,1,0,1.23Z" transform="translate(-5.924 -4)" fill="#31c0ff" stroke="#31c0ff" stroke-width="0.5"/>
          <path id="Shape-10" data-name="Shape" d="M8.306,9.23H4.615a.615.615,0,1,1,0-1.23H8.306a.615.615,0,0,1,0,1.23Z" transform="translate(-4 -5.54)" fill="#31c0ff" stroke="#31c0ff" stroke-width="0.5"/>
          <path id="Shape-11" data-name="Shape" d="M54.23,5.23h-.615a.615.615,0,0,1,0-1.23h.615a.615.615,0,0,1,0,1.23Z" transform="translate(-22.859 -4)" fill="#31c0ff" stroke="#31c0ff" stroke-width="0.5"/>
          <path id="Shape-12" data-name="Shape" d="M48.076,5.23h-2.46a.615.615,0,0,1,0-1.23h2.46a.615.615,0,1,1,0,1.23Z" transform="translate(-19.78 -4)" fill="#31c0ff" stroke="#31c0ff" stroke-width="0.5"/>
          <path id="Shape-13" data-name="Shape" d="M52.306,9.23H48.615a.615.615,0,0,1,0-1.23h3.691a.615.615,0,1,1,0,1.23Z" transform="translate(-20.935 -5.54)" fill="#31c0ff" stroke="#31c0ff" stroke-width="0.5"/>
          <path id="Shape-14" data-name="Shape" d="M5.23,43.23H4.615a.615.615,0,1,1,0-1.23H5.23a.615.615,0,0,1,0,1.23Z" transform="translate(-4 -18.626)" fill="#31c0ff" stroke="#31c0ff" stroke-width="0.5"/>
          <path id="Shape-15" data-name="Shape" d="M12.076,43.23H9.615a.615.615,0,0,1,0-1.23h2.46a.615.615,0,0,1,0,1.23Z" transform="translate(-5.924 -18.626)" fill="#31c0ff" stroke="#31c0ff" stroke-width="0.5"/>
          <path id="Shape-16" data-name="Shape" d="M8.306,39.23H4.615a.615.615,0,1,1,0-1.23H8.306a.615.615,0,1,1,0,1.23Z" transform="translate(-4 -17.086)" fill="#31c0ff" stroke="#31c0ff" stroke-width="0.5"/>
          <path id="Shape-17" data-name="Shape" d="M54.23,43.23h-.615a.615.615,0,1,1,0-1.23h.615a.615.615,0,0,1,0,1.23Z" transform="translate(-22.859 -18.626)" fill="#31c0ff" stroke="#31c0ff" stroke-width="0.5"/>
          <path id="Shape-18" data-name="Shape" d="M48.076,43.23h-2.46a.615.615,0,0,1,0-1.23h2.46a.615.615,0,1,1,0,1.23Z" transform="translate(-19.78 -18.626)" fill="#31c0ff" stroke="#31c0ff" stroke-width="0.5"/>
          <path id="Shape-19" data-name="Shape" d="M52.306,39.23H48.615a.615.615,0,0,1,0-1.23h3.691a.615.615,0,1,1,0,1.23Z" transform="translate(-20.935 -17.086)" fill="#31c0ff" stroke="#31c0ff" stroke-width="0.5"/>
        </g>
        <path id="Shape-20" data-name="Shape" d="M34.251,34.143a36.693,36.693,0,0,1-9.671-2.636,11.606,11.606,0,0,1-.173-3.05,11.388,11.388,0,0,0,2.659-7c0-.089.008-.175.011-.263,1.962-.709,2.882-3.264,2.6-7.294A3.33,3.33,0,0,0,28.2,11.3c-.148-.094-.3-.177-.447-.265-.006-.127-.01-.253-.017-.383C27.405,3.447,19.184,3,19.075,3h-1.27c-.082,0-8.3.446-8.639,7.651-.006.132-.011.258-.017.386-.149.087-.3.17-.447.264a3.331,3.331,0,0,0-1.469,2.594c-.285,4.03.635,6.586,2.6,7.295,0,.09.011.178.011.271a11.38,11.38,0,0,0,2.659,7,11.556,11.556,0,0,1-.174,3.049,36.553,36.553,0,0,1-9.671,2.637A3.085,3.085,0,0,0,0,37.188v.259a.615.615,0,0,0,.615.615H36.292a.615.615,0,0,0,.615-.615v-.259A3.085,3.085,0,0,0,34.251,34.143ZM17.832,4.23h1.215c.287.014,6.907.391,7.436,6.134a21.052,21.052,0,0,0-8.03-1.828,21.059,21.059,0,0,0-8.03,1.827c.525-5.743,7.148-6.12,7.408-6.133ZM8.46,13.982a2.1,2.1,0,0,1,.9-1.643,19.309,19.309,0,0,1,9.09-2.573,19.239,19.239,0,0,1,9.09,2.574,2.1,2.1,0,0,1,.9,1.643c.123,1.707.157,5.721-2.109,6.141a4.9,4.9,0,0,1-4.9-1.757,3.519,3.519,0,0,0-5.976,0,4.894,4.894,0,0,1-4.9,1.757C8.3,19.706,8.34,15.69,8.46,13.982Zm2.612,7.449a6.073,6.073,0,0,0,5.431-2.4.778.778,0,0,0,.048-.086,2.045,2.045,0,0,1,1.9-1.008,2.046,2.046,0,0,1,1.9,1,.615.615,0,0,0,.051.092,6.059,6.059,0,0,0,4.866,2.422c.185,0,.372-.01.565-.026a10.473,10.473,0,0,1-6.589,9.288,1.588,1.588,0,0,1-1.587,0A10.479,10.479,0,0,1,11.072,21.431ZM10.547,34.69a.615.615,0,0,0,.845.208c1.987-1.2,2.334-3.376,2.361-5.142a10.826,10.826,0,0,0,3.485,2.117,3.161,3.161,0,0,0,1.216.284,3.153,3.153,0,0,0,1.216-.283,10.826,10.826,0,0,0,3.486-2.116c.027,1.765.373,3.94,2.361,5.142a.615.615,0,1,0,.637-1.053,3.119,3.119,0,0,1-.786-.677c.832.321,1.962.711,3.339,1.092a5.935,5.935,0,0,1-1.842,2.57H10.042A5.935,5.935,0,0,1,8.2,34.258c1.377-.381,2.507-.771,3.339-1.092a3.119,3.119,0,0,1-.786.677.615.615,0,0,0-.2.846Zm-7.724.672A41.435,41.435,0,0,0,7,34.571a8.067,8.067,0,0,0,1.275,2.261H1.265A1.852,1.852,0,0,1,2.823,35.362Zm25.807,1.47a8.067,8.067,0,0,0,1.275-2.261,41.435,41.435,0,0,0,4.178.791,1.852,1.852,0,0,1,1.558,1.47Z" transform="translate(0 -1.155)" fill="#697b93" stroke="#697b93" stroke-width="0.5"/>
      </g>
    </g>
  </g>
</svg>
