<svg xmlns="http://www.w3.org/2000/svg" width="45" height="45" viewBox="0 0 45 45">
  <g id="Blockchain_development" data-name="Blockchain development" transform="translate(-68 -306)">
    <rect id="Rectangle_1663" data-name="Rectangle 1663" width="45" height="45" transform="translate(68 306)" fill="none"/>
    <g id="blockchain" transform="translate(60.7 309.127)">
      <g id="Group_6529" data-name="Group 6529" transform="translate(12.031 0.671)">
        <g id="Group_6528" data-name="Group 6528">
          <path id="Path_14307" data-name="Path 14307" d="M25.038,9.139l4.634,2.675a.851.851,0,0,1,.456.79v5.35a.794.794,0,0,1-.456.79l-4.634,2.675c-.5.287-.623.165-.912,0l-4.632-2.675a.828.828,0,0,1-.456-.79V12.6a.9.9,0,0,1,.456-.79l4.632-2.675a.844.844,0,0,1,.912,0Z" transform="translate(-19.038 -9.005)" fill="#cbe2ff" fill-rule="evenodd"/>
          <path id="Path_14308" data-name="Path 14308" d="M25.038,334.115l4.634,2.675a.856.856,0,0,1,.456.79v5.35a.8.8,0,0,1-.456.79l-4.634,2.675c-.5.289-.623.167-.912,0l-4.632-2.675a.826.826,0,0,1-.456-.79v-5.35a.908.908,0,0,1,.456-.79l4.632-2.675A.849.849,0,0,1,25.038,334.115Z" transform="translate(-19.038 -309.781)" fill="#cbe2ff" fill-rule="evenodd"/>
          <path id="Path_14309" data-name="Path 14309" d="M350.032,9.139l4.634,2.675a.851.851,0,0,1,.456.79v5.35a.8.8,0,0,1-.456.79l-4.634,2.675c-.5.287-.623.165-.912,0l-4.632-2.675a.828.828,0,0,1-.456-.79V12.6a.9.9,0,0,1,.456-.79l4.632-2.675a.844.844,0,0,1,.912,0Z" transform="translate(-319.83 -9.005)" fill="#cbe2ff" fill-rule="evenodd"/>
          <path id="Path_14310" data-name="Path 14310" d="M350.032,334.115l4.632,2.675a.854.854,0,0,1,.458.79v5.35a.8.8,0,0,1-.456.79l-4.634,2.675c-.5.289-.623.167-.912,0l-4.632-2.675a.826.826,0,0,1-.456-.79v-5.35a.9.9,0,0,1,.456-.79l4.632-2.675A.849.849,0,0,1,350.032,334.115Z" transform="translate(-319.83 -309.781)" fill="#cbe2ff" fill-rule="evenodd"/>
        </g>
        <path id="Path_14311" data-name="Path 14311" d="M24.582,60.62a.51.51,0,0,1-.283-.072l-.163-.1-.011,0-4.632-2.675a.828.828,0,0,1-.456-.79v-5.35a.921.921,0,0,1,.12-.458l5.424,3.133Z" transform="translate(-19.038 -48.036)" fill="#31c0ff" fill-rule="evenodd"/>
        <path id="Path_14312" data-name="Path 14312" d="M24.582,385.613a.51.51,0,0,1-.283-.072l-.163-.1-.011-.006-4.632-2.675a.826.826,0,0,1-.456-.79v-5.35a.92.92,0,0,1,.12-.456l5.424,3.131Z" transform="translate(-19.038 -348.827)" fill="#31c0ff" fill-rule="evenodd"/>
        <path id="Path_14313" data-name="Path 14313" d="M349.576,60.62a.506.506,0,0,1-.283-.072l-.163-.1-.011,0-4.632-2.675a.828.828,0,0,1-.456-.79v-5.35a.922.922,0,0,1,.12-.458l5.424,3.133Z" transform="translate(-319.83 -48.036)" fill="#31c0ff" fill-rule="evenodd"/>
        <path id="Path_14314" data-name="Path 14314" d="M349.576,385.613a.505.505,0,0,1-.283-.072l-.163-.1-.011-.006-4.632-2.675a.826.826,0,0,1-.456-.79v-5.35a.92.92,0,0,1,.12-.456l5.424,3.131Z" transform="translate(-319.83 -348.827)" fill="#31c0ff" fill-rule="evenodd"/>
        <path id="Path_14315" data-name="Path 14315" d="M98.921,51.119a.915.915,0,0,1,.114.462v5.35a.792.792,0,0,1-.454.788L95.835,59.3,93.945,60.4a1.06,1.06,0,0,1-.456.171V54.256Z" transform="translate(-87.945 -47.983)" fill="#9dc6fb" fill-rule="evenodd"/>
        <path id="Path_14316" data-name="Path 14316" d="M98.921,376.113a.913.913,0,0,1,.114.46v5.35a.8.8,0,0,1-.454.79L95.835,384.3l-1.89,1.09a1.07,1.07,0,0,1-.456.173v-6.313Z" transform="translate(-87.945 -348.775)" fill="#9dc6fb" fill-rule="evenodd"/>
        <path id="Path_14317" data-name="Path 14317" d="M423.914,51.119a.916.916,0,0,1,.114.462v5.35a.792.792,0,0,1-.454.788L420.828,59.3l-1.89,1.091a1.069,1.069,0,0,1-.456.171V54.256Z" transform="translate(-388.736 -47.983)" fill="#9dc6fb" fill-rule="evenodd"/>
        <path id="Path_14318" data-name="Path 14318" d="M423.914,376.113a.913.913,0,0,1,.114.46v5.35a.8.8,0,0,1-.454.79l-2.747,1.586-1.89,1.09a1.08,1.08,0,0,1-.456.173v-6.313Z" transform="translate(-388.736 -348.775)" fill="#9dc6fb" fill-rule="evenodd"/>
        <path id="Path_14319" data-name="Path 14319" d="M158.518,166.093a7.844,7.844,0,1,0-7.844-7.844A7.859,7.859,0,0,0,158.518,166.093Z" transform="translate(-140.871 -139.876)" fill="#f9eb55" fill-rule="evenodd"/>
        <path id="Path_14320" data-name="Path 14320" d="M241.726,150.406a7.844,7.844,0,1,1-1.149,15.6,7.843,7.843,0,0,0,0-15.518A7.931,7.931,0,0,1,241.726,150.406Z" transform="translate(-224.079 -139.876)" fill="#ffc250" fill-rule="evenodd"/>
      </g>
      <path id="Path_14321" data-name="Path 14321" d="M42.1,13.821a.623.623,0,0,1-.646,0q-2.752-1.587-5.5-3.176a.559.559,0,0,1-.279-.481V5.19a15.164,15.164,0,0,0-12,0v4.974a.557.557,0,0,1-.312.5L17.9,13.821a.589.589,0,0,1-.646,0L15.829,13a15.146,15.146,0,0,0,0,12.127l1.467-.847a.557.557,0,0,1,.562,0l1.446.836a.557.557,0,0,1-.555.965l-1.176-.68q-2.217,1.279-4.434,2.561l4.434,2.559,4.434-2.559-1.068-.616a.558.558,0,1,1,.559-.965l1.9,1.1a.554.554,0,0,1,.279.481v4.974a15.164,15.164,0,0,0,12,0V27.967a.561.561,0,0,1,.315-.5L41.5,24.283a.557.557,0,0,1,.562,0l1.457.842a15.146,15.146,0,0,0,0-12.127ZM28.349,15.047v-.688a.558.558,0,1,1,1.117,0v.688h1.091v-.688a.558.558,0,1,1,1.117,0v.758a2.307,2.307,0,0,1,1.064.6,2.268,2.268,0,0,1-.123,3.346,2.268,2.268,0,0,1,.123,3.347,2.306,2.306,0,0,1-1.064.6v.758a.558.558,0,1,1-1.117,0v-.688H29.466v.688a.558.558,0,1,1-1.117,0v-.688H26.5a.558.558,0,0,1,0-1.117h.547v-5.8H26.5a.558.558,0,0,1,0-1.117h1.854Zm1.328-4.662a8.683,8.683,0,1,1-6.138,2.542,8.653,8.653,0,0,1,6.138-2.542Zm4.938,2.952a7.514,7.514,0,0,0-4.381-1.814v.707a.558.558,0,1,1-1.117,0v-.707a7.513,7.513,0,0,0-4.379,1.814l.5.5a.558.558,0,1,1-.79.79l-.5-.5a7.53,7.53,0,0,0-1.816,4.381h.709a.558.558,0,1,1,0,1.117h-.709A7.53,7.53,0,0,0,23.949,24l.5-.5a.558.558,0,1,1,.79.79l-.5.5a7.53,7.53,0,0,0,4.379,1.816V25.9a.558.558,0,1,1,1.117,0v.709a7.53,7.53,0,0,0,4.381-1.816l-.5-.5a.558.558,0,1,1,.79-.79l.5.5a7.514,7.514,0,0,0,1.814-4.379h-.707a.558.558,0,1,1,0-1.117h.707a7.514,7.514,0,0,0-1.814-4.381l-.5.5a.558.558,0,0,1-.79-.79Zm-3.5,6.288H28.159v2.341h2.958a1.19,1.19,0,0,0,.836-.344,1.16,1.16,0,0,0,0-1.653A1.181,1.181,0,0,0,31.117,19.625Zm0-3.461H28.159v2.344h2.958a1.183,1.183,0,0,0,.836-.346,1.16,1.16,0,0,0,0-1.653A1.19,1.19,0,0,0,31.117,16.164Zm10.1-8.882-4.43-2.557V9.843l4.43,2.559ZM37.35,3.758l4.432,2.561,4.434-2.561L45.242,3.2a.556.556,0,1,1,.553-.965L47.6,3.275a.548.548,0,0,1,.283.483l0,6.406a.559.559,0,0,1-.315.5q-1.539.887-3.078,1.776a16.284,16.284,0,0,1,0,13.249q1.555.9,3.112,1.795a.561.561,0,0,1,.281.481v6.406a.559.559,0,0,1-.315.5L42.1,38.029a.6.6,0,0,1-.646,0c-1.828-1.07-3.669-2.115-5.5-3.175a.559.559,0,0,1-.279-.481v-.224a16.3,16.3,0,0,1-12,0v.224a.557.557,0,0,1-.312.5L17.9,38.029a.576.576,0,0,1-.646,0c-1.843-1.045-3.669-2.115-5.5-3.175a.559.559,0,0,1-.279-.481V27.967a.561.561,0,0,1,.315-.5q1.539-.887,3.078-1.776a16.258,16.258,0,0,1,0-13.246q-1.555-.9-3.114-1.8a.559.559,0,0,1-.279-.481V3.758a.561.561,0,0,1,.315-.5Q14.537,1.666,17.3.074a.557.557,0,0,1,.562,0q2.768,1.6,5.534,3.194c.285.16.285.407.285.712a16.3,16.3,0,0,1,12,0V3.758a.561.561,0,0,1,.315-.5Q38.745,1.666,41.5.074a.557.557,0,0,1,.562,0L43.6.967a.557.557,0,0,1-.555.965L41.781,1.2,37.35,3.758Zm4.989,3.524V12.4l4.43-2.559V4.723ZM41.222,31.49l-4.43-2.559v5.12l4.43,2.559Zm-3.874-3.522,4.434,2.559,4.434-2.559-4.434-2.561Q39.564,26.687,37.348,27.969ZM17.013,31.49l-4.43-2.559v5.12l4.43,2.559Zm1.117,0v5.12l4.43-2.559v-5.12ZM17.013,7.282l-4.43-2.557V9.843l4.43,2.559ZM13.141,3.758l4.432,2.559L22,3.758,17.573,1.2ZM18.13,7.282V12.4l4.43-2.559V4.725Zm28.638,21.65-4.43,2.559v5.12l4.43-2.559Z" transform="translate(0 0)" fill="#697b93" stroke="#697b93" stroke-width="0.7"/>
    </g>
  </g>
</svg>
