<svg xmlns="http://www.w3.org/2000/svg" width="45" height="45" viewBox="0 0 45 45">
  <g id="CMS_Development" data-name="CMS Development" transform="translate(-69 -721)">
    <rect id="Rectangle_1671" data-name="Rectangle 1671" width="45" height="45" transform="translate(69 721)" fill="none"/>
    <g id="cms_1_" data-name="cms (1)" transform="translate(73 727)">
      <path id="Path_14370" data-name="Path 14370" d="M8,264H43.962v2.48a2.48,2.48,0,0,1-2.48,2.48h-31A2.48,2.48,0,0,1,8,266.48Zm0,0" transform="translate(-7.38 -243.539)" fill="#31c0ff"/>
      <path id="Path_14371" data-name="Path 14371" d="M267.781,62.82a4.224,4.224,0,0,0-.056-.688l1.916-1.11-1.86-3.224-1.928,1.116a4.841,4.841,0,0,0-1.172-.688V56h-3.72v2.226a4.845,4.845,0,0,0-1.19.688L257.86,57.8,256,61.022l1.935,1.11a4.266,4.266,0,0,0,0,1.376L256,64.618l1.86,3.224,1.928-1.116a4.841,4.841,0,0,0,1.172.688v2.226h3.72V67.415a4.846,4.846,0,0,0,1.19-.688l1.91,1.116,1.86-3.224-1.935-1.11A4.239,4.239,0,0,0,267.781,62.82Zm-4.96,1.86a1.86,1.86,0,1,1,1.86-1.86A1.86,1.86,0,0,1,262.82,64.68Zm0,0" transform="translate(-236.159 -51.66)" fill="#f9eb55"/>
      <path id="Path_14372" data-name="Path 14372" d="M82.054,84.96a4.043,4.043,0,0,0-.062-.676l1.24-.732-1.24-2.145-1.24.725a3.841,3.841,0,0,0-1.178-.676V80h-2.48v1.457a3.723,3.723,0,0,0-1.172.676l-1.24-.725-1.24,2.145,1.24.732a3.386,3.386,0,0,0,0,1.351l-1.24.732,1.24,2.145,1.24-.725a3.722,3.722,0,0,0,1.172.676v1.457h2.48V88.463a3.838,3.838,0,0,0,1.2-.676l1.24.725,1.24-2.145-1.24-.732a4.036,4.036,0,0,0,.043-.676Zm-3.72,1.24a1.24,1.24,0,1,1,1.24-1.24A1.24,1.24,0,0,1,78.334,86.2Zm0,0" transform="translate(-67.75 -73.8)" fill="#f9eb55"/>
      <g id="Group_6533" data-name="Group 6533">
        <path id="Path_14373" data-name="Path 14373" d="M34.1,0H3.1A3.1,3.1,0,0,0,0,3.1V22.941a3.1,3.1,0,0,0,3.1,3.1H13.145l-2.325,3.72H8.681a3.1,3.1,0,0,0-3.1,3.1.62.62,0,0,0,.62.62H31a.62.62,0,0,0,.62-.62,3.1,3.1,0,0,0-3.1-3.1H26.383l-2.325-3.72H34.1a3.1,3.1,0,0,0,3.1-3.1V3.1A3.1,3.1,0,0,0,34.1,0ZM30.277,32.242H6.926A1.86,1.86,0,0,1,8.681,31H28.522a1.86,1.86,0,0,1,1.755,1.24Zm-5.351-2.48H12.277l2.325-3.72h8Zm11.037-6.82A1.86,1.86,0,0,1,34.1,24.8H3.1a1.86,1.86,0,0,1-1.86-1.86v-1.86H35.962Zm0-3.1H1.24V3.1A1.86,1.86,0,0,1,3.1,1.24h31a1.86,1.86,0,0,1,1.86,1.86Zm0,0" fill="#697b93" stroke="#697b93" stroke-width="0.4"/>
        <path id="Path_14374" data-name="Path 14374" d="M401.24,288.62a.62.62,0,1,1-.62-.62A.62.62,0,0,1,401.24,288.62Zm0,0" transform="translate(-368.998 -265.679)" fill="#697b93" stroke="#697b93" stroke-width="0.4"/>
        <path id="Path_14375" data-name="Path 14375" d="M369.24,288.62a.62.62,0,1,1-.62-.62A.62.62,0,0,1,369.24,288.62Zm0,0" transform="translate(-339.478 -265.679)" fill="#697b93" stroke="#697b93" stroke-width="0.4"/>
        <path id="Path_14376" data-name="Path 14376" d="M74.106,81.443l1.24-2.145a.62.62,0,0,0-.223-.85l-.887-.521v-.695l.9-.521a.62.62,0,0,0,.223-.85l-1.24-2.145a.62.62,0,0,0-.843-.229l-.9.521a4.08,4.08,0,0,0-.62-.347V72.62a.62.62,0,0,0-.62-.62h-2.48a.62.62,0,0,0-.62.62v1.042a4.079,4.079,0,0,0-.62.347l-.905-.521a.62.62,0,0,0-.843.229l-1.24,2.145a.62.62,0,0,0,.223.85l.9.521v.695l-.9.521a.62.62,0,0,0-.223.85l1.24,2.145a.62.62,0,0,0,.843.229l.905-.521a4.08,4.08,0,0,0,.62.347v1.042a.62.62,0,0,0,.62.62h2.48a.62.62,0,0,0,.62-.62V81.5a4.08,4.08,0,0,0,.62-.347l.905.521A.62.62,0,0,0,74.106,81.443Zm-2.195-1.507a3.155,3.155,0,0,1-.98.564.62.62,0,0,0-.415.583v.837h-1.24v-.837a.62.62,0,0,0-.415-.583,3.155,3.155,0,0,1-.98-.564.62.62,0,0,0-.713-.068l-.719.422-.62-1.079.719-.391a.62.62,0,0,0,.3-.651,2.89,2.89,0,0,1,0-1.129.62.62,0,0,0-.3-.7l-.719-.415.62-1.079.719.422a.62.62,0,0,0,.713-.068,3.155,3.155,0,0,1,.98-.564.62.62,0,0,0,.415-.583V73.24h1.24v.837a.62.62,0,0,0,.415.583,3.155,3.155,0,0,1,.98.564.62.62,0,0,0,.713.068l.719-.422.62,1.079-.719.391a.62.62,0,0,0-.3.651,2.89,2.89,0,0,1,0,1.129.62.62,0,0,0,.3.7l.719.415-.62,1.079-.719-.422A.62.62,0,0,0,71.911,79.937Zm0,0" transform="translate(-59.356 -66.42)" fill="#697b93" stroke="#697b93" stroke-width="0.4"/>
        <path id="Path_14377" data-name="Path 14377" d="M113.86,120a1.86,1.86,0,1,0,1.86,1.86A1.86,1.86,0,0,0,113.86,120Zm0,2.48a.62.62,0,1,1,.62-.62A.62.62,0,0,1,113.86,122.48Zm0,0" transform="translate(-103.319 -110.699)" fill="#697b93" stroke="#697b93" stroke-width="0.4"/>
        <path id="Path_14378" data-name="Path 14378" d="M314.48,112a2.48,2.48,0,1,0,2.48,2.48A2.48,2.48,0,0,0,314.48,112Zm0,3.72a1.24,1.24,0,1,1,1.24-1.24A1.24,1.24,0,0,1,314.48,115.72Zm0,0" transform="translate(-287.819 -103.319)" fill="#697b93" stroke="#697b93" stroke-width="0.4"/>
        <path id="Path_14379" data-name="Path 14379" d="M262.371,53.333l-1.86-3.224a.621.621,0,0,0-.843-.248L258.1,50.8a6.02,6.02,0,0,0-.62-.353V48.62a.62.62,0,0,0-.62-.62h-3.72a.62.62,0,0,0-.62.62v1.823a6.028,6.028,0,0,0-.62.353l-1.569-.936a.621.621,0,0,0-.843.223l-1.86,3.224a.62.62,0,0,0,.223.893l1.569.893v.695l-1.569.893a.62.62,0,0,0-.223.843l1.86,3.224a.62.62,0,0,0,.843.223l1.569-.886a6.025,6.025,0,0,0,.62.353v1.823a.62.62,0,0,0,.62.62h3.72a.62.62,0,0,0,.62-.62V60.438a6.02,6.02,0,0,0,.62-.353l1.569.936a.621.621,0,0,0,.843-.223l1.86-3.224a.62.62,0,0,0-.223-.893l-1.569-.893v-.695l1.569-.893a.62.62,0,0,0,.223-.868ZM259.6,54.2a.62.62,0,0,0-.31.62,3.661,3.661,0,0,1,0,1.2.62.62,0,0,0,.31.62l1.389.806-1.24,2.145-1.389-.8a.62.62,0,0,0-.695.043,4.191,4.191,0,0,1-1.041.62.62.62,0,0,0-.385.57v1.612h-2.48V60.035a.62.62,0,0,0-.385-.57,4.2,4.2,0,0,1-1.041-.62.62.62,0,0,0-.695-.044l-1.389.8-1.24-2.145,1.389-.775a.62.62,0,0,0,.31-.62,3.662,3.662,0,0,1,0-1.2.62.62,0,0,0-.31-.62l-1.389-.806,1.24-2.145,1.389.8a.62.62,0,0,0,.695-.043,4.191,4.191,0,0,1,1.041-.62.62.62,0,0,0,.385-.57V49.24h2.48v1.606a.62.62,0,0,0,.385.57,4.2,4.2,0,0,1,1.041.62.62.62,0,0,0,.695.044l1.389-.8,1.24,2.145Zm0,0" transform="translate(-228.337 -44.28)" fill="#697b93" stroke="#697b93" stroke-width="0.4"/>
        <path id="Path_14380" data-name="Path 14380" d="M176.623,34.381a.62.62,0,0,0,.322-.093,6.945,6.945,0,0,1,5.7-.744.624.624,0,1,0,.372-1.191,8.21,8.21,0,0,0-6.721.887.614.614,0,0,0,.322,1.141Zm0,0" transform="translate(-162.362 -29.52)" fill="#697b93" stroke="#697b93" stroke-width="0.4"/>
        <path id="Path_14381" data-name="Path 14381" d="M182.028,210.3a6.686,6.686,0,0,1-1.42.155,7.093,7.093,0,0,1-3.72-1.048.612.612,0,1,0-.632,1.048,8.384,8.384,0,0,0,4.34,1.24,7.919,7.919,0,0,0,1.68-.186.634.634,0,0,0-.26-1.24Zm0,0" transform="translate(-162.317 -193.095)" fill="#697b93" stroke="#697b93" stroke-width="0.4"/>
      </g>
    </g>
  </g>
</svg>
