<svg xmlns="http://www.w3.org/2000/svg" width="45" height="45" viewBox="0 0 45 45">
  <g id="Could_server_Management_" data-name="Could server Management " transform="translate(-70 -886)">
    <rect id="Rectangle_1676" data-name="Rectangle 1676" width="45" height="45" transform="translate(70 886)" fill="none"/>
    <g id="server" transform="translate(73.616 860.078)">
      <path id="Path_14422" data-name="Path 14422" d="M44.9,55.9a8.269,8.269,0,0,0-6.524-8.078,9.533,9.533,0,0,0-17.825-2.71c-.153-.011-.3-.025-.459-.025a7.628,7.628,0,0,0-7.56,6.632,6.361,6.361,0,0,0,1.835,12.45H36.631A8.269,8.269,0,0,0,44.9,55.9Z" transform="translate(-7.373 -7.437)" fill="#31c0ff"/>
      <g id="Group_6535" data-name="Group 6535" transform="translate(12.084 45.285)">
        <path id="Path_14423" data-name="Path 14423" d="M165.34,360H152.619a.636.636,0,0,0-.636.636v5.089a.636.636,0,0,0,.636.636H165.34a.636.636,0,0,0,.636-.636v-5.089A.636.636,0,0,0,165.34,360Zm-9.541,4.453a1.272,1.272,0,1,1,1.272-1.272A1.272,1.272,0,0,1,155.8,364.448Z" transform="translate(-151.983 -347.275)" fill="#f9eb55"/>
        <path id="Path_14424" data-name="Path 14424" d="M165.34,200H152.619a.636.636,0,0,0-.636.636v5.089a.636.636,0,0,0,.636.636H165.34a.636.636,0,0,0,.636-.636v-5.089A.636.636,0,0,0,165.34,200Zm-9.541,4.452a1.272,1.272,0,1,1,1.272-1.272A1.272,1.272,0,0,1,155.8,204.448Z" transform="translate(-151.983 -199.996)" fill="#f9eb55"/>
        <path id="Path_14425" data-name="Path 14425" d="M165.34,280H152.619a.636.636,0,0,0-.636.636v5.089a.636.636,0,0,0,.636.636H165.34a.636.636,0,0,0,.636-.636v-5.089A.636.636,0,0,0,165.34,280Zm-9.541,4.453a1.272,1.272,0,1,1,1.272-1.272A1.272,1.272,0,0,1,155.8,284.449Z" transform="translate(-151.983 -273.635)" fill="#f9eb55"/>
      </g>
      <g id="Group_6536" data-name="Group 6536" transform="translate(14.628 47.193)">
        <circle id="Ellipse_12474" data-name="Ellipse 12474" cx="1.272" cy="1.272" r="1.272" transform="translate(0 0)" fill="#fff"/>
        <circle id="Ellipse_12475" data-name="Ellipse 12475" cx="1.272" cy="1.272" r="1.272" transform="translate(0 6.361)" fill="#fff"/>
        <circle id="Ellipse_12476" data-name="Ellipse 12476" cx="1.272" cy="1.272" r="1.272" transform="translate(0 12.721)" fill="#fff"/>
      </g>
      <g id="Group_6537" data-name="Group 6537" transform="translate(0 31.922)">
        <path id="Path_14426" data-name="Path 14426" d="M31.548,39.861a10.169,10.169,0,0,0-18.733-2.845H12.72A8.284,8.284,0,0,0,4.592,43.8,7,7,0,0,0,7,57.37h3.18V56.1H7a5.725,5.725,0,0,1-1.654-11.2.636.636,0,0,0,.445-.526,7.007,7.007,0,0,1,6.933-6.079c.1,0,.2.007.3.013l.127.008a.636.636,0,0,0,.6-.339A8.9,8.9,0,0,1,30.379,40.5a.636.636,0,0,0,.492.509A7.633,7.633,0,0,1,29.258,56.1H27.986V57.37h1.272a8.9,8.9,0,0,0,2.29-17.509Z" transform="translate(0 -31.922)" fill="#697b93" stroke="#697b93" stroke-width="0.4"/>
        <path id="Path_14427" data-name="Path 14427" d="M157.977,192H145.255a1.272,1.272,0,0,0-1.272,1.272v5.089a1.232,1.232,0,0,1,0,1.272v5.089a1.232,1.232,0,0,1,0,1.272v5.089a1.272,1.272,0,0,0,1.272,1.272h12.721a1.272,1.272,0,0,0,1.272-1.272v-5.089a1.232,1.232,0,0,1,0-1.272v-5.089a1.232,1.232,0,0,1,0-1.272v-5.089A1.272,1.272,0,0,0,157.977,192Zm-12.721,1.272h12.721v5.089H145.255Zm12.721,11.449H145.255v-5.089h12.721Zm0,6.361H145.255v-5.089h12.721Z" transform="translate(-132.535 -179.269)" fill="#697b93" stroke="#697b93" stroke-width="0.4"/>
        <path id="Path_14428" data-name="Path 14428" d="M177.891,216A1.908,1.908,0,1,0,179.8,217.9,1.908,1.908,0,0,0,177.891,216Zm0,2.544a.636.636,0,1,1,.636-.636A.636.636,0,0,1,177.891,218.54Z" transform="translate(-161.991 -201.361)" fill="#697b93"/>
        <path id="Path_14429" data-name="Path 14429" d="M239.983,216h1.272v1.272h-1.272Z" transform="translate(-220.902 -201.361)" fill="#697b93"/>
        <path id="Path_14430" data-name="Path 14430" d="M271.983,216h2.544v1.272h-2.544Z" transform="translate(-250.358 -201.361)" fill="#697b93"/>
        <path id="Path_14431" data-name="Path 14431" d="M177.891,299.812a1.908,1.908,0,1,0-1.908-1.908A1.908,1.908,0,0,0,177.891,299.812Zm0-2.544a.636.636,0,1,1-.636.636A.636.636,0,0,1,177.891,297.268Z" transform="translate(-161.991 -275)" fill="#697b93"/>
        <path id="Path_14432" data-name="Path 14432" d="M239.983,296h1.272v1.272h-1.272Z" transform="translate(-220.902 -275)" fill="#697b93"/>
        <path id="Path_14433" data-name="Path 14433" d="M271.983,296h2.544v1.272h-2.544Z" transform="translate(-250.358 -275)" fill="#697b93"/>
        <path id="Path_14434" data-name="Path 14434" d="M177.891,379.812a1.908,1.908,0,1,0-1.908-1.908A1.908,1.908,0,0,0,177.891,379.812Zm0-2.544a.636.636,0,1,1-.636.636A.636.636,0,0,1,177.891,377.268Z" transform="translate(-161.991 -348.639)" fill="#697b93"/>
        <path id="Path_14435" data-name="Path 14435" d="M239.983,376h1.272v1.272h-1.272Z" transform="translate(-220.902 -348.639)" fill="#697b93"/>
        <path id="Path_14436" data-name="Path 14436" d="M271.983,376h2.544v1.272h-2.544Z" transform="translate(-250.358 -348.639)" fill="#697b93"/>
      </g>
    </g>
  </g>
</svg>
