<svg xmlns="http://www.w3.org/2000/svg" width="45" height="45" viewBox="0 0 45 45">
  <g id="Cyber_Security" data-name="Cyber Security" transform="translate(-70 -976)">
    <rect id="Rectangle_1677" data-name="Rectangle 1677" width="45" height="45" transform="translate(70 976)" fill="none"/>
    <g id="cyber-security" transform="translate(74 948.453)">
      <g id="Group_6542" data-name="Group 6542" transform="translate(0.69 34.089)">
        <g id="Group_6541" data-name="Group 6541" transform="translate(0 0)">
          <g id="Group_6539" data-name="Group 6539" transform="translate(4.751 8.041)">
            <g id="XMLID_203_">
              <g id="Group_6538" data-name="Group 6538">
                <path id="Path_14440" data-name="Path 14440" d="M101.121,169.9H75.712a.419.419,0,0,1-.419-.419V152.723a.419.419,0,0,1,.419-.419h25.409a.419.419,0,0,1,.419.419v16.754A.419.419,0,0,1,101.121,169.9Z" transform="translate(-75.293 -152.304)" fill="#f9f7f8"/>
              </g>
            </g>
          </g>
          <path id="Path_14443" data-name="Path 14443" d="M176.487,170.245h-9.326a1.891,1.891,0,0,1-1.891-1.891v-7.806a.978.978,0,0,1,.978-.978H177.4a.978.978,0,0,1,.978.978v7.806A1.891,1.891,0,0,1,176.487,170.245Z" transform="translate(-154.017 -151.004)" fill="#ffbf75"/>
          <g id="Group_6540" data-name="Group 6540" transform="translate(11.254 8.566)">
            <path id="Path_14444" data-name="Path 14444" d="M169.779,168.751a1.891,1.891,0,0,1-1.891-1.891V159.57H166.25a.978.978,0,0,0-.978.978v7.806a1.891,1.891,0,0,0,1.891,1.891h9.326a1.891,1.891,0,0,0,1.848-1.493Z" transform="translate(-165.272 -159.57)" fill="#ffac4d"/>
            <path id="Path_14445" data-name="Path 14445" d="M236.946,202.953l-.434-1.369a.431.431,0,0,1,.081-.4,1.591,1.591,0,1,0-2.456,0,.432.432,0,0,1,.082.406l-.434,1.369a.507.507,0,0,0,.484.66h2.192A.507.507,0,0,0,236.946,202.953Z" transform="translate(-228.813 -195.758)" fill="#fff"/>
          </g>
        </g>
      </g>
      <g id="Group_6543" data-name="Group 6543" transform="translate(0 33.547)">
        <path id="Path_14446" data-name="Path 14446" d="M38.343,282.718H36.3V272.705a.542.542,0,0,0-1.084,0v10.013H11.236a.542.542,0,0,0,0,1.084H37.8v.811a1.354,1.354,0,0,1-1.353,1.353H4.489a1.354,1.354,0,0,1-1.353-1.353V283.8h5.79a.542.542,0,0,0,0-1.084H5.719V272.705a.542.542,0,0,0-1.084,0v10.013H2.594a.542.542,0,0,0-.542.542v1.354a2.44,2.44,0,0,0,2.437,2.437H36.448a2.44,2.44,0,0,0,2.437-2.437V283.26A.542.542,0,0,0,38.343,282.718Z" transform="translate(-1.904 -254.918)" fill="#697b93" stroke="#697b93" stroke-width="0.4"/>
        <path id="Path_14447" data-name="Path 14447" d="M349.674,115.884h6.536a1,1,0,0,1,1,1v3.143a.542.542,0,0,0,1.084,0v-3.143a2.091,2.091,0,0,0-2.088-2.088h-6.536a.542.542,0,0,0,0,1.084Z" transform="translate(-323.9 -108.928)" fill="#697b93" stroke="#697b93" stroke-width="0.4"/>
        <path id="Path_14448" data-name="Path 14448" d="M38.338,120.574a.542.542,0,0,0,.542-.542v-3.143a1,1,0,0,1,1-1h6.464a.542.542,0,1,0,0-1.084H39.884a2.091,2.091,0,0,0-2.088,2.088v3.143A.542.542,0,0,0,38.338,120.574Z" transform="translate(-35.064 -108.929)" fill="#697b93" stroke="#697b93" stroke-width="0.4"/>
        <path id="Path_14449" data-name="Path 14449" d="M68.338,144.8a.542.542,0,0,0-.542.542v2.521a.542.542,0,0,0,1.084,0v-1.979h4.177a.542.542,0,1,0,0-1.084Z" transform="translate(-62.896 -136.76)" fill="#697b93" stroke="#697b93" stroke-width="0.4"/>
        <path id="Path_14450" data-name="Path 14450" d="M369.212,148.405a.542.542,0,0,0,.542-.542v-2.521a.542.542,0,0,0-.542-.542h-4.853a.542.542,0,1,0,0,1.084h4.311v1.979A.542.542,0,0,0,369.212,148.405Z" transform="translate(-337.524 -136.76)" fill="#697b93" stroke="#697b93" stroke-width="0.4"/>
        <path id="Path_14451" data-name="Path 14451" d="M68.338,272.163a.542.542,0,0,0-.542.542v8.387a.542.542,0,0,0,.542.542H94.584a.542.542,0,0,0,.542-.542v-8.387a.542.542,0,1,0-1.084,0v7.845H68.88v-7.845A.542.542,0,0,0,68.338,272.163Z" transform="translate(-62.896 -254.918)" fill="#697b93" stroke="#697b93" stroke-width="0.4"/>
        <path id="Path_14452" data-name="Path 14452" d="M226.475,196.766a1.053,1.053,0,0,0,.847.429h2.192a1.049,1.049,0,0,0,1-1.366l-.415-1.31a2.133,2.133,0,1,0-3.363,0l-.415,1.31A1.053,1.053,0,0,0,226.475,196.766Zm1.133-2.893a1.049,1.049,0,0,1,.878-1.712,1.059,1.059,0,0,1,.979.982,1.048,1.048,0,0,1-.237.731.97.97,0,0,0-.18.913l.419,1.324h-2.1l.419-1.324A.972.972,0,0,0,227.608,193.874Z" transform="translate(-209.92 -179.69)" fill="#697b93" stroke="#697b93" stroke-width="0.4"/>
        <path id="Path_14453" data-name="Path 14453" d="M1.716,49.708H2.765a1.718,1.718,0,0,0,1.627-1.174h1.39A1.718,1.718,0,0,0,7.41,49.708H8.459a1.718,1.718,0,0,0,1.627-1.174H11.4v2.9a2.435,2.435,0,0,0,2.433,2.433H21a.542.542,0,1,0,0-1.084H13.835a1.35,1.35,0,0,1-1.349-1.349V43.633a.437.437,0,0,1,.436-.436H24.073a.437.437,0,0,1,.436.436v7.806a1.354,1.354,0,0,1-1.239,1.344.542.542,0,1,0,.087,1.08,2.444,2.444,0,0,0,2.236-2.424v-2.9h1.3a1.718,1.718,0,0,0,1.627,1.174h1.049A1.718,1.718,0,0,0,31.2,48.534h1.39a1.718,1.718,0,0,0,1.627,1.174h1.049a1.716,1.716,0,1,0,0-3.431H34.217a1.718,1.718,0,0,0-1.627,1.174H31.2a1.718,1.718,0,0,0-1.627-1.174H28.523A1.718,1.718,0,0,0,26.9,47.45h-1.3V43.633a1.521,1.521,0,0,0-1.446-1.516v-2.95a5.644,5.644,0,0,0-.166-1.359.542.542,0,0,0-1.052.261,4.556,4.556,0,0,1,.134,1.1v2.947H21.546V39.166a3.017,3.017,0,1,0-6.034,0v2.947H13.994V39.166a4.534,4.534,0,0,1,7.993-2.932.542.542,0,1,0,.826-.7,5.618,5.618,0,0,0-9.9,3.634v2.947a1.522,1.522,0,0,0-1.508,1.52V47.45H10.086a1.718,1.718,0,0,0-1.627-1.174H7.41A1.718,1.718,0,0,0,5.782,47.45H4.392a1.718,1.718,0,0,0-1.627-1.174H1.716a1.716,1.716,0,0,0,0,3.431Zm32.5-2.347h1.049a.632.632,0,1,1,0,1.263H34.217a.632.632,0,0,1,0-1.263Zm-5.694,0h1.049a.632.632,0,1,1,0,1.263H28.523a.632.632,0,1,1,0-1.263ZM16.6,39.166a1.933,1.933,0,0,1,3.866,0v2.947H16.6ZM7.41,47.36H8.459a.632.632,0,0,1,0,1.263H7.41a.632.632,0,0,1,0-1.263Zm-5.694,0H2.765a.632.632,0,1,1,0,1.263H1.716a.632.632,0,1,1,0-1.263Z" transform="translate(0 -33.547)" fill="#697b93" stroke="#697b93" stroke-width="0.4"/>
      </g>
    </g>
  </g>
</svg>
