<svg xmlns="http://www.w3.org/2000/svg" width="45" height="45" viewBox="0 0 45 45">
  <g id="Database_Development" data-name="Database Development" transform="translate(-70 -808)">
    <rect id="Rectangle_1675" data-name="Rectangle 1675" width="45" height="45" transform="translate(70 808)" fill="none"/>
    <g id="Layer_34" data-name="Layer 34" transform="translate(73 811.15)">
      <g id="database_server" data-name="database server" transform="translate(2 2)">
        <path id="Path_14383" data-name="Path 14383" d="M33,31h3.57v2.38H33Z" transform="translate(-14.555 -13.745)" fill="#acabb1"/>
        <path id="Path_14386" data-name="Path 14386" d="M36,31h1.785v2.38H36Z" transform="translate(-15.77 -13.745)" fill="#898890"/>
        <path id="Path_14387" data-name="Path 14387" d="M40.57,36.19v4.76a1.194,1.194,0,0,1-1.19,1.19H37a1.194,1.194,0,0,0,1.19-1.19V36.19A1.194,1.194,0,0,0,37,35h2.38A1.194,1.194,0,0,1,40.57,36.19Z" transform="translate(-16.175 -15.365)" fill="#2488ff"/>
        <path id="Path_14388" data-name="Path 14388" d="M15,39h2.38v2.38H15Z" transform="translate(-7.265 -16.984)" fill="#31c0ff"/>
        <path id="Path_14389" data-name="Path 14389" d="M15,23h2.38v2.38H15Z" transform="translate(-7.265 -10.505)" fill="#31c0ff"/>
        <path id="Path_14391" data-name="Path 14391" d="M15,7h2.38V9.38H15Z" transform="translate(-7.265 -4.025)" fill="#31c0ff"/>
        <path id="Path_14396" data-name="Path 14396" d="M7,39H9.38v2.38H7Z" transform="translate(-4.025 -16.984)" fill="#ffbf75"/>
        <path id="Path_14397" data-name="Path 14397" d="M7,23H9.38v2.38H7Z" transform="translate(-4.025 -10.505)" fill="#ffbf75"/>
        <path id="Path_14398" data-name="Path 14398" d="M7,7H9.38V9.38H7Z" transform="translate(-4.025 -4.025)" fill="#ffbf75"/>
        <path id="Path_14399" data-name="Path 14399" d="M46.421,46v5.95c0,1.642-4.8,2.975-10.71,2.975S25,53.592,25,51.95V46c0,1.642,4.8,2.975,10.71,2.975S46.421,47.642,46.421,46Z" transform="translate(-11.315 -19.819)" fill="#f9eb55"/>
        <path id="Path_14400" data-name="Path 14400" d="M46.421,36v5.95c0,1.642-4.8,2.975-10.71,2.975S25,43.592,25,41.95V36c0,1.642,4.8,2.975,10.71,2.975S46.421,37.642,46.421,36Z" transform="translate(-11.315 -15.77)" fill="#f9eb55"/>
        <path id="Path_14401" data-name="Path 14401" d="M46.421,26v5.95c0,1.642-4.8,2.975-10.71,2.975S25,33.592,25,31.95V26c0,1.642,4.8,2.975,10.71,2.975S46.421,27.642,46.421,26Z" transform="translate(-11.315 -11.72)" fill="#f9eb55"/>
        <g id="Group_6534" data-name="Group 6534" transform="translate(13.39 11.606)">
          <ellipse id="Ellipse_12473" data-name="Ellipse 12473" cx="10.5" cy="2.5" rx="10.5" ry="2.5" transform="translate(0.46 0.244)" fill="#ffc250"/>
          <path id="Path_14402" data-name="Path 14402" d="M52.9,46v5.95c0,1.642-4.8,2.975-10.71,2.975-.4,0-.8-.006-1.19-.024,5.355-.161,9.52-1.422,9.52-2.951V47.868C52.008,47.357,52.9,46.708,52.9,46Z" transform="translate(-31.185 -31.426)" fill="#ffc250"/>
          <path id="Path_14403" data-name="Path 14403" d="M52.9,36v5.95c0,.708-.893,1.357-2.38,1.868a27.435,27.435,0,0,1-8.33,1.107c-.4,0-.8-.006-1.19-.024,5.355-.161,9.52-1.422,9.52-2.951V37.868C52.008,37.357,52.9,36.708,52.9,36Z" transform="translate(-31.185 -27.376)" fill="#ffc250"/>
          <path id="Path_14404" data-name="Path 14404" d="M52.9,26v5.95c0,.708-.893,1.357-2.38,1.868a27.436,27.436,0,0,1-8.33,1.107c-.4,0-.8-.006-1.19-.024,5.355-.161,9.52-1.422,9.52-2.951V27.868C52.008,27.357,52.9,26.708,52.9,26Z" transform="translate(-31.185 -23.326)" fill="#ffc250"/>
        </g>
        <path id="Path_14405" data-name="Path 14405" d="M52.9,23.975c0,.708-.893,1.357-2.38,1.868a27.436,27.436,0,0,1-8.33,1.107c-.4,0-.8-.006-1.19-.024,5.355-.161,9.52-1.422,9.52-2.951S46.355,21.184,41,21.024c.393-.018.785-.024,1.19-.024C48.1,21,52.9,22.333,52.9,23.975Z" transform="translate(-17.794 -9.695)" fill="#f9eb55"/>
        <path id="Path_14406" data-name="Path 14406" d="M50.52,46v1.868a27.436,27.436,0,0,1-8.33,1.107c-.4,0-.8-.006-1.19-.024C46.355,48.791,50.52,47.529,50.52,46Z" transform="translate(-17.794 -19.819)" fill="#ffde55"/>
        <path id="Path_14407" data-name="Path 14407" d="M50.52,36v1.868a27.435,27.435,0,0,1-8.33,1.107c-.4,0-.8-.006-1.19-.024C46.355,38.791,50.52,37.529,50.52,36Z" transform="translate(-17.794 -15.77)" fill="#ffde55"/>
        <path id="Path_14408" data-name="Path 14408" d="M26.883,12.716a1.777,1.777,0,0,0-1.678-1.2h-.6V10.33h.6a1.79,1.79,0,0,0,1.785-1.785V3.785A1.79,1.79,0,0,0,25.206,2H3.785A1.79,1.79,0,0,0,2,3.785v4.76A1.79,1.79,0,0,0,3.785,10.33h.6v1.19h-.6A1.79,1.79,0,0,0,2,13.305v4.76A1.79,1.79,0,0,0,3.785,19.85h.6v1.19h-.6A1.79,1.79,0,0,0,2,22.825v4.76a1.79,1.79,0,0,0,1.785,1.785H15.09v4.76c0,2.344,5.688,3.57,11.305,3.57S37.7,36.475,37.7,34.131V16.28C37.7,14,32.34,12.788,26.883,12.716ZM3.785,9.14a.6.6,0,0,1-.6-.6V3.785a.6.6,0,0,1,.6-.6H25.206a.6.6,0,0,1,.6.6v4.76a.6.6,0,0,1-.6.6Zm19.635,1.19v1.19H21.04V10.33Zm-3.57,0v1.19H9.14V10.33Zm-11.9,0v1.19H5.57V10.33Zm7.14,17.85H3.785a.6.6,0,0,1-.6-.6v-4.76a.6.6,0,0,1,.6-.6H15.09ZM5.57,21.04V19.85H7.95v1.19Zm9.52,0H9.14V19.85h5.95Zm0-4.76v2.38H3.785a.6.6,0,0,1-.6-.6v-4.76a.6.6,0,0,1,.6-.6H25.206a.417.417,0,0,1,.083.018C20.053,12.877,15.09,14.091,15.09,16.28Zm21.421,17.85c0,.809-3.57,2.38-10.115,2.38S16.28,34.94,16.28,34.131V29.859c1.958,1.244,6.045,1.892,10.115,1.892s8.158-.649,10.115-1.892Zm0-5.95c0,.809-3.57,2.38-10.115,2.38S16.28,28.99,16.28,28.181V23.908C18.238,25.152,22.326,25.8,26.4,25.8s8.158-.649,10.115-1.892Zm0-5.95c0,.809-3.57,2.38-10.115,2.38S16.28,23.04,16.28,22.23V17.958C18.238,19.2,22.326,19.85,26.4,19.85s8.158-.649,10.115-1.892ZM26.4,18.66c-6.545,0-10.115-1.571-10.115-2.38S19.85,13.9,26.4,13.9s10.115,1.571,10.115,2.38S32.941,18.66,26.4,18.66Z" transform="translate(-2 -2)" fill="#697b93" stroke="#697b93" stroke-width="0.4"/>
        <path id="Path_14409" data-name="Path 14409" d="M42,35h1.19v1.19H42Z" transform="translate(-18.199 -15.365)" fill="#697b93"/>
        <path id="Path_14410" data-name="Path 14410" d="M42,46h1.19v1.19H42Z" transform="translate(-18.199 -19.819)" fill="#697b93"/>
        <path id="Path_14411" data-name="Path 14411" d="M42,55h1.19v1.19H42Z" transform="translate(-18.199 -23.464)" fill="#697b93"/>
        <path id="Path_14412" data-name="Path 14412" d="M8.975,22H6.6a.6.6,0,0,0-.6.6v2.38a.6.6,0,0,0,.6.6h2.38a.6.6,0,0,0,.6-.6V22.6A.6.6,0,0,0,8.975,22Zm-.6,2.38H7.19V23.19H8.38Z" transform="translate(-3.62 -10.1)" fill="#697b93"/>
        <path id="Path_14413" data-name="Path 14413" d="M16.975,22H14.6a.6.6,0,0,0-.6.6v2.38a.6.6,0,0,0,.6.6h2.38a.6.6,0,0,0,.6-.6V22.6A.6.6,0,0,0,16.975,22Zm-.6,2.38H15.19V23.19h1.19Z" transform="translate(-6.86 -10.1)" fill="#697b93"/>
        <path id="Path_14414" data-name="Path 14414" d="M8.975,6H6.6a.6.6,0,0,0-.6.6v2.38a.6.6,0,0,0,.6.6h2.38a.6.6,0,0,0,.6-.6V6.6A.6.6,0,0,0,8.975,6Zm-.6,2.38H7.19V7.19H8.38Z" transform="translate(-3.62 -3.62)" fill="#697b93"/>
        <path id="Path_14415" data-name="Path 14415" d="M16.975,6H14.6a.6.6,0,0,0-.6.6v2.38a.6.6,0,0,0,.6.6h2.38a.6.6,0,0,0,.6-.6V6.6A.6.6,0,0,0,16.975,6Zm-.6,2.38H15.19V7.19h1.19Z" transform="translate(-6.86 -3.62)" fill="#697b93"/>
        <path id="Path_14416" data-name="Path 14416" d="M22,6h8.33V7.19H22Z" transform="translate(-10.1 -3.62)" fill="#697b93"/>
        <path id="Path_14417" data-name="Path 14417" d="M38,6h1.19V7.19H38Z" transform="translate(-16.58 -3.62)" fill="#697b93"/>
        <path id="Path_14418" data-name="Path 14418" d="M22,10h8.33v1.19H22Z" transform="translate(-10.1 -5.24)" fill="#697b93"/>
        <path id="Path_14419" data-name="Path 14419" d="M38,10h1.19v1.19H38Z" transform="translate(-16.58 -5.24)" fill="#697b93"/>
        <path id="Path_14420" data-name="Path 14420" d="M8.975,38H6.6a.6.6,0,0,0-.6.6v2.38a.6.6,0,0,0,.6.6h2.38a.6.6,0,0,0,.6-.6V38.6A.6.6,0,0,0,8.975,38Zm-.6,2.38H7.19V39.19H8.38Z" transform="translate(-3.62 -16.58)" fill="#697b93"/>
        <path id="Path_14421" data-name="Path 14421" d="M16.975,38H14.6a.6.6,0,0,0-.6.6v2.38a.6.6,0,0,0,.6.6h2.38a.6.6,0,0,0,.6-.6V38.6A.6.6,0,0,0,16.975,38Zm-.6,2.38H15.19V39.19h1.19Z" transform="translate(-6.86 -16.58)" fill="#697b93"/>
      </g>
    </g>
  </g>
</svg>
