<svg xmlns="http://www.w3.org/2000/svg" width="45" height="45" viewBox="0 0 45 45">
  <g id="IoT_Development" data-name="IoT Development" transform="translate(-69 -632)">
    <rect id="Rectangle_1670" data-name="Rectangle 1670" width="45" height="45" transform="translate(69 632)" fill="none"/>
    <g id="iot" transform="translate(76.631 634.224)">
      <path id="Path_14357" data-name="Path 14357" d="M9.86,312h9.522a1.36,1.36,0,0,1,1.36,1.36v6.121H8.5V313.36A1.36,1.36,0,0,1,9.86,312Zm0,0" transform="translate(-7.32 -285.476)" fill="#75c1ff"/>
      <path id="Path_14359" data-name="Path 14359" d="M201.86,304h6.8a1.36,1.36,0,0,1,1.36,1.36v9.522H200.5V305.36A1.36,1.36,0,0,1,201.86,304Zm0,0" transform="translate(-182.997 -278.156)" fill="#75c1ff"/>
      <path id="Path_14363" data-name="Path 14363" d="M24.984,6.8H22.913a7.482,7.482,0,0,0-14.9,0H5.941a5.441,5.441,0,0,0,0,10.882h7.481v-1.36H5.941a4.081,4.081,0,0,1,0-8.161h3.4v-.68a6.121,6.121,0,1,1,12.242,0v.68h3.4a4.081,4.081,0,1,1,0,8.161H17.5v1.36h7.481a5.441,5.441,0,1,0,0-10.882Zm0,0" transform="translate(0)" fill="#697b93" stroke="#697b93" stroke-width="0.5"/>
      <path id="Path_14364" data-name="Path 14364" d="M25.664,131.931H24.3v-1.485a2.035,2.035,0,1,0-2.6-2.6H16.142v-8.56L17.7,120.85l.962-.962-3.2-3.2-3.2,3.2.962.962,1.559-1.559v8.56H9.216a2.035,2.035,0,1,0-2.6,2.595v2.166H2.54a2.043,2.043,0,0,0-2.04,2.04v8.161a2.043,2.043,0,0,0,2.04,2.04H6.621v1.36H4.581v1.36h5.441v-1.36H7.981v-1.36h4.081a2.043,2.043,0,0,0,2.04-2.04v-8.161a2.043,2.043,0,0,0-2.04-2.04H7.981v-2.166a2.038,2.038,0,0,0,1.235-1.235H21.709a2.037,2.037,0,0,0,1.235,1.235v1.486H18.863a2.043,2.043,0,0,0-2.04,2.04v11.562a2.043,2.043,0,0,0,2.04,2.04h6.8a2.043,2.043,0,0,0,2.04-2.04V133.971a2.043,2.043,0,0,0-2.04-2.04Zm-13.6,11.562H2.54a.681.681,0,0,1-.68-.68v-1.36H12.742v1.36A.681.681,0,0,1,12.062,143.493Zm.68-8.841v5.441H1.86v-5.441a.681.681,0,0,1,.68-.68h9.522A.681.681,0,0,1,12.742,134.651Zm10.882-6.8a.68.68,0,1,1-.68.68A.68.68,0,0,1,23.624,127.85ZM7.3,129.211a.68.68,0,1,1,.68-.68A.68.68,0,0,1,7.3,129.211Zm11.562,4.081h6.8a.681.681,0,0,1,.68.68v8.841H18.183v-8.841A.681.681,0,0,1,18.863,133.291Zm6.8,12.922h-6.8a.681.681,0,0,1-.68-.68v-1.36h8.161v1.36A.681.681,0,0,1,25.664,146.213Zm0,0" transform="translate(0 -106.767)" fill="#697b93" stroke="#697b93" stroke-width="0.5"/>
      <path id="Path_14361" data-name="Path 14361" d="M66.7,241.1a1.1,1.1,0,1,1-1.1-1.1A1.1,1.1,0,0,1,66.7,241.1Zm0,0" transform="translate(-58.351 -219.406)" fill="#ffbf75"/>
      <path id="Path_14362" data-name="Path 14362" d="M258.724,241.112A1.112,1.112,0,1,1,257.612,240,1.112,1.112,0,0,1,258.724,241.112Zm0,0" transform="translate(-233.989 -219.349)" fill="#ffbf75"/>
    </g>
  </g>
</svg>
