<svg xmlns="http://www.w3.org/2000/svg" width="45" height="45" viewBox="0 0 45 45">
  <g id="Mobile_Development_" data-name="Mobile Development " transform="translate(-160 -153)">
    <rect id="Rectangle_1659" data-name="Rectangle 1659" width="45" height="45" transform="translate(160 153)" fill="none"/>
    <g id="Group_6527" data-name="Group 6527" transform="translate(-22 -23)">
      <path id="Path_14299" data-name="Path 14299" d="M18408.508,2507.175l2.324,2.494-7.029,7.2,7.029,6.972-2.721,2.211-8.957-9.183Z" transform="translate(-18209 -2318)" fill="#54ffc5"/>
      <path id="Path_14300" data-name="Path 14300" d="M18401.477,2507.175l-2.324,2.494,7.029,7.2-7.029,6.972,2.721,2.211,8.957-9.183Z" transform="translate(-18191.998 -2318)" fill="#54ffc5"/>
      <path id="Path_13573" data-name="Path 13573" d="M1.875,33.133a4.381,4.381,0,0,0,4.376,4.376h17.5a4.381,4.381,0,0,0,4.376-4.376V21.148l1.509-1.509a1.251,1.251,0,0,0,0-1.768l-1.509-1.509V4.376A4.381,4.381,0,0,0,23.756,0H6.251A4.381,4.381,0,0,0,1.875,4.376V16.361L.366,17.87a1.251,1.251,0,0,0,0,1.768l1.509,1.509Zm21.881,3.126H6.251a3.129,3.129,0,0,1-3.126-3.126v-1.25H26.881v1.25a3.129,3.129,0,0,1-3.126,3.126ZM20.409,27.1l-1.326-1.326,6.58-6.58a.625.625,0,0,0,0-.884l-6.58-6.58,1.326-1.326,8.348,8.348ZM6.251,1.25h17.5a3.129,3.129,0,0,1,3.126,3.126v1.25H3.125V4.376A3.129,3.129,0,0,1,6.251,1.25ZM9.6,10.406l1.326,1.326-6.58,6.58a.625.625,0,0,0,0,.884l6.58,6.58L9.6,27.1,1.25,18.754Zm-.884,17.58a1.251,1.251,0,0,0,1.768,0l1.326-1.326a1.251,1.251,0,0,0,0-1.768L5.67,18.754l6.138-6.138a1.251,1.251,0,0,0,0-1.768L10.482,9.522a1.251,1.251,0,0,0-1.768,0L3.125,15.111V6.876H26.881v8.234L21.292,9.522a1.251,1.251,0,0,0-1.768,0L18.2,10.848a1.251,1.251,0,0,0,0,1.768l6.138,6.138L18.2,24.892a1.251,1.251,0,0,0,0,1.768l1.326,1.326a1.251,1.251,0,0,0,1.768,0L26.882,22.4v8.235H3.125V22.4Zm0,0" transform="translate(190 180)" fill="#697b93" stroke="#697b93" stroke-width="0.6"/>
      <path id="Path_13574" data-name="Path 13574" d="M128.267,43.765a.472.472,0,0,0,.113.056.4.4,0,0,0,.112.037.961.961,0,0,0,.125.013.627.627,0,0,0,.24-1.206.625.625,0,0,0-.684.137.642.642,0,0,0-.131.206.629.629,0,0,0-.05.238.655.655,0,0,0,.181.444A.913.913,0,0,0,128.267,43.765Zm0,0" transform="translate(71.385 140.505)" fill="#697b93" stroke="#697b93" stroke-width="0.6"/>
      <path id="Path_13575" data-name="Path 13575" d="M171.285,43.918h6.876a.625.625,0,1,0,0-1.25h-6.876a.625.625,0,1,0,0,1.25Zm0,0" transform="translate(31.843 140.458)" fill="#697b93" stroke="#697b93" stroke-width="0.6"/>
      <path id="Path_13576" data-name="Path 13576" d="M189.6,460.8h-1.25a.625.625,0,1,0,0,1.25h1.25a.625.625,0,0,0,0-1.25Zm0,0" transform="translate(16.026 -247.043)" fill="#697b93" stroke="#697b93" stroke-width="0.6"/>
    </g>
  </g>
</svg>
