<svg xmlns="http://www.w3.org/2000/svg" width="45" height="45" viewBox="0 0 45 45">
  <g id="Web_Development" data-name="Web Development" transform="translate(-226 -249)">
    <rect id="Rectangle_1661" data-name="Rectangle 1661" width="45" height="45" transform="translate(226 249)" fill="none"/>
    <g id="Web_Development-2" data-name="Web Development" transform="translate(-295.649 -715)">
      <rect id="Rectangle_1656" data-name="Rectangle 1656" width="32.716" height="8.66" transform="translate(527.938 968.962)" fill="#95d600"/>
      <g id="ui" transform="translate(526.359 968)">
        <path id="Path_13577" data-name="Path 13577" d="M33.051,1H3.185A3.188,3.188,0,0,0,0,4.185V33.909a3.188,3.188,0,0,0,3.185,3.185H33.051a3.188,3.188,0,0,0,3.185-3.185V4.185A3.188,3.188,0,0,0,33.051,1ZM3.185,3.123H33.051a1.063,1.063,0,0,1,1.062,1.062V9.493H2.123V4.185A1.063,1.063,0,0,1,3.185,3.123ZM33.051,34.971H3.185a1.063,1.063,0,0,1-1.062-1.062V11.616H34.112V33.909A1.063,1.063,0,0,1,33.051,34.971Z" transform="translate(0 -1)" fill="#697b93"/>
        <path id="Path_13578" data-name="Path 13578" d="M203.846,196.083a1.062,1.062,0,0,0-1.394.558L196.082,211.5a1.062,1.062,0,0,0,1.951.836l6.37-14.862A1.062,1.062,0,0,0,203.846,196.083Z" transform="translate(-182.125 -182.196)" fill="#697b93"/>
        <path id="Path_13579" data-name="Path 13579" d="M83.2,241.4a1.062,1.062,0,0,0-1.492-.166L76.4,245.478a1.062,1.062,0,0,0,0,1.658l5.308,4.246a1.062,1.062,0,1,0,1.326-1.658l-4.272-3.417,4.272-3.417A1.062,1.062,0,0,0,83.2,241.4Z" transform="translate(-70.625 -224.014)" fill="#697b93"/>
        <path id="Path_13580" data-name="Path 13580" d="M338.032,245.478l-5.308-4.246a1.062,1.062,0,1,0-1.326,1.658l4.272,3.417-4.272,3.417a1.062,1.062,0,1,0,1.326,1.658l5.308-4.246A1.062,1.062,0,0,0,338.032,245.478Z" transform="translate(-307.574 -224.014)" fill="#697b93"/>
        <circle id="Ellipse_12467" data-name="Ellipse 12467" cx="1.225" cy="1.225" r="1.225" transform="translate(4.236 4.165)" fill="#fff"/>
        <path id="Path_14301" data-name="Path 14301" d="M1.225,0A1.225,1.225,0,1,1,0,1.225,1.225,1.225,0,0,1,1.225,0Z" transform="translate(8.319 4.165)" fill="#fff"/>
        <circle id="Ellipse_12469" data-name="Ellipse 12469" cx="1.225" cy="1.225" r="1.225" transform="translate(12.402 4.165)" fill="#fff"/>
        <path id="Path_13581" data-name="Path 13581" d="M332.062,63.123h6.369a1.062,1.062,0,1,0,0-2.123h-6.369a1.062,1.062,0,1,0,0,2.123Z" transform="translate(-307.574 -56.754)" fill="#fff"/>
      </g>
    </g>
  </g>
</svg>
