<svg xmlns="http://www.w3.org/2000/svg" width="45" height="45" viewBox="0 0 45 45">
  <g id="BeautyTech" transform="translate(-609 -312)">
    <rect id="Rectangle_1689" data-name="Rectangle 1689" width="45" height="45" transform="translate(609 312)" fill="none"/>
    <g id="hair" transform="translate(612.482 315.426)">
      <path id="Path_14611" data-name="Path 14611" d="M40.81,15.079l-3.874-3.874a4.088,4.088,0,0,0-5.781,0L11.213,31.147a4.142,4.142,0,0,0,0,5.857h0a4.142,4.142,0,0,0,5.857,0h0a14.491,14.491,0,0,0,4.045-7.852l.276-1.647a2.585,2.585,0,0,1,.722-1.4h0a2.585,2.585,0,0,1,3.656,0l2.008,2.008Z" transform="translate(-9.256 -9.255)" fill="#ffbf75"/>
      <circle id="Ellipse_12495" data-name="Ellipse 12495" cx="1.721" cy="1.721" r="1.721" transform="translate(3.164 23.099)" fill="#fff"/>
      <g id="Group_6575" data-name="Group 6575" transform="translate(11.302 24.043)">
        <path id="Path_14612" data-name="Path 14612" d="M213.753,371.9l-8.615,8.615a3.617,3.617,0,0,1-5.115,0h0l8.439-8.439" transform="translate(-196.451 -368.281)" fill="#31c0ff"/>
        <path id="Path_14613" data-name="Path 14613" d="M174.393,323.206H155.6a3.617,3.617,0,0,0-3.617,3.617h18.8l.938-2.2Z" transform="translate(-151.981 -323.206)" fill="#31c0ff"/>
      </g>
      <path id="Path_14614" data-name="Path 14614" d="M12.868,186.173a1.841,1.841,0,0,1,3.118-1l2.008,2.008a.744.744,0,0,0,1.052-1.052l-2.008-2.008a3.329,3.329,0,0,0-5.637,1.8l-.276,1.647a13.672,13.672,0,0,1-3.837,7.449,3.4,3.4,0,1,1-4.806-4.806l7.658-7.658a.744.744,0,1,0-1.052-1.052l-7.658,7.658a4.885,4.885,0,0,0,6.909,6.909,15.15,15.15,0,0,0,4.252-8.255Z" transform="translate(0 -167.8)" fill="#697b93" stroke="#697b93" stroke-width="0.4"/>
      <path id="Path_14615" data-name="Path 14615" d="M152.372,150.44a.744.744,0,1,0-.526-.218A.746.746,0,0,0,152.372,150.44Z" transform="translate(-140.352 -137.868)" fill="#697b93" stroke="#697b93" stroke-width="0.4"/>
      <path id="Path_14616" data-name="Path 14616" d="M180.039,10.515a.741.741,0,0,0,.526-.218l7.822-7.822a3.344,3.344,0,0,1,4.73,0L196.99,6.35A.744.744,0,0,0,198.042,5.3l-3.874-3.874a4.832,4.832,0,0,0-6.833,0l-7.822,7.822a.744.744,0,0,0,.526,1.269Z" transform="translate(-165.962)" fill="#697b93" stroke="#697b93" stroke-width="0.4"/>
      <path id="Path_14617" data-name="Path 14617" d="M33.283,301.246a2.465,2.465,0,0,0,3.486,3.486h0a2.465,2.465,0,0,0-3.486-3.486Zm2.434,2.434h0a.977.977,0,1,1,0-1.383A.979.979,0,0,1,35.717,303.681Z" transform="translate(-30.141 -278.169)" fill="#697b93"/>
      <path id="Path_14618" data-name="Path 14618" d="M334.088,47.141a.744.744,0,0,0,.526-1.269l-4.159-4.159a.744.744,0,0,0-1.052,1.052l4.159,4.159A.741.741,0,0,0,334.088,47.141Z" transform="translate(-304.706 -38.401)" fill="#697b93" stroke="#697b93" stroke-width="0.4"/>
      <path id="Path_14619" data-name="Path 14619" d="M304.875,76.352a.744.744,0,0,0,.526-1.269l-4.159-4.159a.744.744,0,1,0-1.052,1.052l4.159,4.159A.742.742,0,0,0,304.875,76.352Z" transform="translate(-277.666 -65.44)" fill="#697b93" stroke="#697b93" stroke-width="0.4"/>
      <path id="Path_14620" data-name="Path 14620" d="M275.666,105.562a.744.744,0,0,0,.526-1.269l-4.158-4.159a.744.744,0,0,0-1.052,1.052l4.159,4.159A.741.741,0,0,0,275.666,105.562Z" transform="translate(-250.629 -92.478)" fill="#697b93" stroke="#697b93" stroke-width="0.4"/>
      <path id="Path_14621" data-name="Path 14621" d="M246.454,134.774a.744.744,0,0,0,.526-1.269l-4.159-4.159a.744.744,0,0,0-1.052,1.052l4.159,4.159A.741.741,0,0,0,246.454,134.774Z" transform="translate(-223.589 -119.517)" fill="#697b93" stroke="#697b93" stroke-width="0.4"/>
      <path id="Path_14622" data-name="Path 14622" d="M217.769,163.767a.744.744,0,0,0,0-1.052l-4.158-4.159a.744.744,0,0,0-1.052,1.052l4.158,4.159a.744.744,0,0,0,1.052,0Z" transform="translate(-196.55 -146.556)" fill="#697b93" stroke="#697b93" stroke-width="0.4"/>
      <path id="Path_14623" data-name="Path 14623" d="M165.42,223.266a4.36,4.36,0,0,0-6.357-5.962h0a4.359,4.359,0,0,0-.2,5.951h-3.9a.744.744,0,1,0,0,1.487h6.9a4.346,4.346,0,0,0-1.02,2.129H143.567a2.878,2.878,0,0,1,2.775-2.129h2.929a.744.744,0,1,0,0-1.487h-2.929a4.365,4.365,0,0,0-4.36,4.36.744.744,0,0,0,.744.744h10.4l-7.35,7.35a.744.744,0,0,0,0,1.052,4.36,4.36,0,0,0,6.166,0l8.4-8.4h.5a4.36,4.36,0,1,0,4.578-5.094Zm-5.305-.847a2.873,2.873,0,0,1,0-4.063h0a2.873,2.873,0,1,1,2.193,4.9h-.322A2.852,2.852,0,0,1,160.114,222.419Zm-9.227,13.29a2.876,2.876,0,0,1-3.469.458l7.807-7.807h3.011Zm14.251-5.22a2.873,2.873,0,1,1,2.873-2.873A2.876,2.876,0,0,1,165.138,230.489Z" transform="translate(-131.424 -199.957)" fill="#697b93" stroke="#697b93" stroke-width="0.4"/>
      <path id="Path_14624" data-name="Path 14624" d="M270.258,314.694a.744.744,0,1,0-.526-.218A.749.749,0,0,0,270.258,314.694Z" transform="translate(-249.472 -289.907)" fill="#697b93"/>
      <path id="Path_14625" data-name="Path 14625" d="M364.39,340.315a.743.743,0,1,0-.526.218A.75.75,0,0,0,364.39,340.315Z" transform="translate(-336.118 -313.825)" fill="#697b93"/>
    </g>
  </g>
</svg>
