<svg xmlns="http://www.w3.org/2000/svg" width="45" height="45" viewBox="0 0 45 45">
  <g id="Ecommerce" transform="translate(-487 -49)">
    <rect id="Rectangle_1685" data-name="Rectangle 1685" width="45" height="45" transform="translate(487 49)" fill="none"/>
    <g id="shopping-cart" transform="translate(491 26.919)">
      <path id="Path_14546" data-name="Path 14546" d="M116.062,114.58l3.81-17.744H90.7l4.246,17.744Z" transform="translate(-83.948 -63.638)" fill="#ffca19"/>
      <path id="Path_14547" data-name="Path 14547" d="M119.872,96.836H90.7l.653,2.83H119Z" transform="translate(-83.948 -63.638)" fill="#e9ae21"/>
      <path id="Path_14548" data-name="Path 14548" d="M101.991,102.238H80.872a1.06,1.06,0,0,1-1.089-.871L75.538,83.513a.847.847,0,0,1,.218-.871,1.344,1.344,0,0,1,.871-.435H105.8a.99.99,0,0,1,.871.435,1.044,1.044,0,0,1,.218.98l-3.81,17.636A1.158,1.158,0,0,1,101.991,102.238ZM81.743,99.951H101.12l3.266-15.567H78.042Z" transform="translate(-69.877 -50.098)" fill="#697b93"/>
      <path id="Path_14549" data-name="Path 14549" d="M6.749,34.286a1.06,1.06,0,0,1-1.089-.871L4.79,30.258h-3.7A1.091,1.091,0,0,1,0,29.17a1.171,1.171,0,0,1,1.089-1.089H5.661a1.06,1.06,0,0,1,1.089.871L7.838,32.98a1.182,1.182,0,0,1-.762,1.306Z" transform="translate(0)" fill="#697b93"/>
      <path id="Path_14550" data-name="Path 14550" d="M74.353,328.49H50.73a3.919,3.919,0,0,1,0-7.838H74.353a1.091,1.091,0,0,1,1.089,1.089,1.171,1.171,0,0,1-1.089,1.089H50.73a1.742,1.742,0,1,0,0,3.484H74.353a1.091,1.091,0,0,1,1.089,1.089C75.551,328.055,75.006,328.49,74.353,328.49Z" transform="translate(-43.327 -270.799)" fill="#697b93"/>
      <circle id="Ellipse_12487" data-name="Ellipse 12487" cx="3.157" cy="3.157" r="3.157" transform="translate(25.365 53.555)" fill="#fff"/>
      <circle id="Ellipse_12488" data-name="Ellipse 12488" cx="1.089" cy="1.089" r="1.089" transform="translate(27.433 55.623)" fill="#849da9"/>
      <path id="Path_14551" data-name="Path 14551" d="M329.109,361.545a4.354,4.354,0,1,1,4.354-4.354A4.367,4.367,0,0,1,329.109,361.545Zm0-6.314a2.068,2.068,0,1,0,0,4.137,2.141,2.141,0,0,0,2.068-2.068A2.067,2.067,0,0,0,329.109,355.231Z" transform="translate(-300.588 -300.588)" fill="#697b93"/>
      <circle id="Ellipse_12489" data-name="Ellipse 12489" cx="3.157" cy="3.157" r="3.157" transform="translate(8.056 53.555)" fill="#fff"/>
      <circle id="Ellipse_12490" data-name="Ellipse 12490" cx="1.089" cy="1.089" r="1.089" transform="translate(10.124 55.623)" fill="#849da9"/>
      <path id="Path_14552" data-name="Path 14552" d="M96.514,361.545a4.354,4.354,0,1,1,4.354-4.354A4.367,4.367,0,0,1,96.514,361.545Zm0-6.314a2.068,2.068,0,1,0,0,4.137,2.141,2.141,0,0,0,2.068-2.068A2,2,0,0,0,96.514,355.231Z" transform="translate(-85.302 -300.588)" fill="#697b93"/>
      <path id="Path_14553" data-name="Path 14553" d="M205.889,159.561a1.091,1.091,0,0,1-1.089-1.089V152.05a1.089,1.089,0,0,1,2.177,0v6.423A1.029,1.029,0,0,1,205.889,159.561Z" transform="translate(-189.559 -113.736)" fill="#697b93"/>
      <path id="Path_14554" data-name="Path 14554" d="M273.18,159.561a1.091,1.091,0,0,1-1.089-1.089V152.05a1.089,1.089,0,0,1,2.177,0v6.423A1.029,1.029,0,0,1,273.18,159.561Z" transform="translate(-251.843 -113.736)" fill="#697b93"/>
      <path id="Path_14555" data-name="Path 14555" d="M340.471,159.561a1.091,1.091,0,0,1-1.089-1.089V152.05a1.089,1.089,0,0,1,2.177,0v6.423A1.028,1.028,0,0,1,340.471,159.561Z" transform="translate(-314.126 -113.736)" fill="#697b93"/>
    </g>
  </g>
</svg>
