<svg xmlns="http://www.w3.org/2000/svg" width="45" height="45" viewBox="0 0 45 45">
  <g id="Edutech" transform="translate(-491 -225)">
    <rect id="Rectangle_1687" data-name="Rectangle 1687" width="45" height="45" transform="translate(491 225)" fill="none"/>
    <g id="online-learning" transform="translate(487.084 227.437)">
      <path id="Path_14562" data-name="Path 14562" d="M294.385,254.759H284.048a2.274,2.274,0,0,0-2.274,2.274v17.354h12.914v-7.879h1.64a2.447,2.447,0,0,0,2.447-2.447v-4.912A4.39,4.39,0,0,0,294.385,254.759Z" transform="translate(-253.711 -234.736)" fill="#31c0ff"/>
      <path id="Path_14564" data-name="Path 14564" d="M382.458,254.906v8.51h-5.427v3.228H384.1a2.446,2.446,0,0,0,2.447-2.448v-4.912A4.39,4.39,0,0,0,382.458,254.906Z" transform="translate(-341.481 -234.872)" fill="#31c0ff"/>
      <g id="Group_6571" data-name="Group 6571" transform="translate(27.18 0.59)">
        <path id="Path_14565" data-name="Path 14565" d="M278.656,9.323v8.044h14.2V13.7a5.334,5.334,0,0,0-5.334-5.334H283.06A2.372,2.372,0,0,1,281.8,8l-.35-.22A1.82,1.82,0,0,0,278.656,9.323Z" transform="translate(-278.018 -7.5)" fill="#697b93"/>
        <path id="Path_14566" data-name="Path 14566" d="M341.6,175.146v6.641a1.858,1.858,0,0,0,1.858,1.858h.6a1.858,1.858,0,0,0,1.858-1.858v-6.641Z" transform="translate(-336.012 -161.97)" fill="#fce8d0"/>
        <g id="Group_6570" data-name="Group 6570" transform="translate(0 4.882)">
          <path id="Path_14567" data-name="Path 14567" d="M270.534,111.8a1.811,1.811,0,0,0,1.811,1.811H284.2a1.811,1.811,0,0,0,0-3.623H272.346A1.812,1.812,0,0,0,270.534,111.8Z" transform="translate(-270.534 -106.819)" fill="#fce8d0"/>
          <path id="Path_14568" data-name="Path 14568" d="M313.065,69.848V77.46a4.156,4.156,0,0,0,4.156,4.156h.483a4.156,4.156,0,0,0,4.156-4.156V72.523a2.911,2.911,0,0,0-2.911-2.911H313.3A.236.236,0,0,0,313.065,69.848Z" transform="translate(-309.722 -69.612)" fill="#fce8d0"/>
        </g>
      </g>
      <path id="Path_14569" data-name="Path 14569" d="M150.954,253.89H134.737a.913.913,0,0,1-.913-.913V239.594a.913.913,0,0,1,.913-.913h16.216a.913.913,0,0,1,.913.913v13.382A.913.913,0,0,1,150.954,253.89Z" transform="translate(-117.389 -219.922)" fill="#80b6fc"/>
      <path id="Path_14570" data-name="Path 14570" d="M325.771,238.681h-2.218a.913.913,0,0,1,.913.913v13.382a.913.913,0,0,1-.913.913h2.218a.913.913,0,0,0,.913-.913V239.594A.913.913,0,0,0,325.771,238.681Z" transform="translate(-292.206 -219.922)" fill="#62a4fb"/>
      <path id="Path_14571" data-name="Path 14571" d="M150.954,287.83H134.737a.913.913,0,0,1-.913-.913V273.534a.913.913,0,0,1,.913-.913h16.216a.914.914,0,0,1,.914.913v13.382A.914.914,0,0,1,150.954,287.83Z" transform="translate(-117.389 -251.194)" fill="#fff"/>
      <path id="Path_14572" data-name="Path 14572" d="M326.682,273.534v13.382a.914.914,0,0,1-.914.913H323.55a.913.913,0,0,0,.913-.914v-14.3h1.3A.913.913,0,0,1,326.682,273.534Z" transform="translate(-292.203 -251.194)" fill="#fff"/>
      <g id="Group_6572" data-name="Group 6572" transform="translate(21.408 23.955)">
        <path id="Path_14573" data-name="Path 14573" d="M220.5,305.165v4.511a.379.379,0,0,0,.577.322l3.661-2.256a.379.379,0,0,0,0-.645l-3.661-2.256A.379.379,0,0,0,220.5,305.165Z" transform="translate(-218.663 -304.786)" fill="#ff7b79"/>
        <circle id="Ellipse_12492" data-name="Ellipse 12492" cx="1.228" cy="1.228" r="1.228" transform="translate(0 8.54) rotate(-22.514)" fill="#ff7b79"/>
      </g>
      <path id="Path_14574" data-name="Path 14574" d="M339.193,366.415h-1.771a1.457,1.457,0,0,1-1.457-1.457v-1.771h3.228Z" transform="translate(-303.643 -334.642)" fill="#fce8d0"/>
      <path id="Path_14575" data-name="Path 14575" d="M212.788,468.409h-1.877a.856.856,0,0,1-.856-.856v-1.42h3.588v1.42A.856.856,0,0,1,212.788,468.409Z" transform="translate(-187.628 -429.498)" fill="#fce8d0"/>
      <ellipse id="Ellipse_12493" data-name="Ellipse 12493" cx="8.193" cy="8.305" rx="8.193" ry="8.305" transform="translate(7.01 7.299)" fill="#f5de46"/>
      <path id="Path_14576" data-name="Path 14576" d="M37.507,130.062a8.365,8.365,0,0,1,.782,3.543,8.249,8.249,0,0,1-8.193,8.3,8.13,8.13,0,0,1-6.24-2.923,8.176,8.176,0,0,0,15.6-3.543A8.339,8.339,0,0,0,37.507,130.062Z" transform="translate(-16.064 -119.84)" fill="#ecc52e"/>
      <g id="Group_6573" data-name="Group 6573" transform="translate(9.194 12.99)">
        <path id="Path_14577" data-name="Path 14577" d="M69.79,189.964v3.965a.423.423,0,0,0,.314.41l3.279.852a.824.824,0,0,0,.415,0l3.279-.852a.423.423,0,0,0,.314-.41v-3.965Z" transform="translate(-67.581 -188.023)" fill="#fff"/>
        <path id="Path_14578" data-name="Path 14578" d="M47.577,165.29l-5.754,1.738a.194.194,0,0,0,0,.371l5.754,1.738a.413.413,0,0,0,.239,0l5.754-1.738a.194.194,0,0,0,0-.371l-5.754-1.738A.413.413,0,0,0,47.577,165.29Z" transform="translate(-41.686 -165.273)" fill="#31c0ff"/>
      </g>
      <g id="Group_6574" data-name="Group 6574" transform="translate(6.422 0)">
        <path id="Path_14579" data-name="Path 14579" d="M349.27,176.008a2.042,2.042,0,0,0,1.426-.58.589.589,0,0,0-.82-.847.87.87,0,0,1-.606.249H349.1a.869.869,0,0,1-.606-.249.589.589,0,0,0-.82.847,2.042,2.042,0,0,0,1.426.58Z" transform="translate(-320.686 -160.706)" fill="#697b93"/>
        <path id="Path_14580" data-name="Path 14580" d="M213.5,303.631a.969.969,0,0,0,.98-.021l3.661-2.256a.968.968,0,0,0,0-1.648l-3.661-2.256a.968.968,0,0,0-1.476.824v4.511A.969.969,0,0,0,213.5,303.631Zm.683-4.979,3.048,1.878-3.048,1.878Z" transform="translate(-196.768 -273.939)" fill="#697b93"/>
        <path id="Path_14581" data-name="Path 14581" d="M188.867,400.014H183.2a1.817,1.817,0,0,0-3.438,0h-.752a.589.589,0,0,0,0,1.179h.752a1.817,1.817,0,0,0,3.438,0h5.664a.589.589,0,0,0,0-1.179Zm-7.383,1.228a.639.639,0,1,1,.639-.639A.639.639,0,0,1,181.484,401.242Z" transform="translate(-164.906 -367.443)" fill="#697b93"/>
        <path id="Path_14582" data-name="Path 14582" d="M45.653,28.545v-4.13a4.985,4.985,0,0,0-4.98-4.98H37.665V17.349a4.746,4.746,0,0,0,2.242-4.029v-.461h.942A2.4,2.4,0,0,0,42.612,8.83V6.794a5.909,5.909,0,0,0-2.155-4.57.589.589,0,0,0-.751.909,4.734,4.734,0,0,1,1.727,3.661V8.129a2.4,2.4,0,0,0-.584-.072h-.958a3.5,3.5,0,0,0-3.485-3.173H30.758a.826.826,0,0,0-.825.825V8.057h-.942a2.394,2.394,0,0,0-.583.072V2.414a1.231,1.231,0,0,1,1.886-1.041l.35.221a2.957,2.957,0,0,0,1.578.455h4.466a4.746,4.746,0,0,1,.73.056A.589.589,0,0,0,37.6.941a5.927,5.927,0,0,0-.911-.07H32.222A1.779,1.779,0,0,1,31.273.6l-.35-.221a2.41,2.41,0,0,0-3.694,2.038V8.829a2.4,2.4,0,0,0,1.762,4.03h.942v.461a4.746,4.746,0,0,0,2.243,4.029v.821H23.612a8.968,8.968,0,0,0,.373-2.566A8.782,8.782,0,1,0,15.2,24.5q.324,0,.642-.024V35.723a1.5,1.5,0,0,0,1.5,1.5h4.488v.831A1.447,1.447,0,0,0,23.282,39.5h1.877A1.447,1.447,0,0,0,26.6,38.056v-.831h.869v2.426a.589.589,0,0,0,.589.589H40.976a.589.589,0,0,0,.589-.589V37.615a.589.589,0,1,0-1.179,0v1.447H28.652V37.225h4.912a1.5,1.5,0,0,0,1.5-1.5v-3.36h5.319v2.5a.589.589,0,0,0,1.179,0v-2.5h1.051a3.039,3.039,0,0,0,3.037-3.037v-.781ZM42.071,10.458a1.223,1.223,0,0,1-1.222,1.222h-.942V9.236h.942A1.223,1.223,0,0,1,42.071,10.458ZM28.991,11.68a1.222,1.222,0,1,1,0-2.444h.942V11.68Zm2.121,1.64V12.277s0-.005,0-.008,0-.005,0-.008V8.654s0-.005,0-.008,0-.005,0-.008V6.062h5.295a2.324,2.324,0,0,1,2.322,2.322V13.32a3.571,3.571,0,0,1-3.567,3.567h-.483A3.57,3.57,0,0,1,31.112,13.32Zm2.243,4.556a4.728,4.728,0,0,0,1.324.189h.483a4.729,4.729,0,0,0,1.325-.189v2.531a1.27,1.27,0,0,1-1.268,1.268h-.15v-2a1.5,1.5,0,0,0-1.5-1.5h-.21Zm1.128,13.307h-.7a.869.869,0,0,1-.868-.868V29.135H34.96v2.049h-.477ZM33.564,19.35a.325.325,0,0,1,.325.324v1.2a1.5,1.5,0,0,0-.325-.036H22.3a8.926,8.926,0,0,0,.868-1.489h10.4ZM7.6,15.6a7.6,7.6,0,1,1,7.6,7.715A7.668,7.668,0,0,1,7.6,15.6ZM25.425,38.056a.266.266,0,0,1-.266.266H23.282a.266.266,0,0,1-.266-.266v-.831h2.409Zm8.464-2.333a.325.325,0,0,1-.325.324H17.349a.325.325,0,0,1-.325-.324V24.305a8.737,8.737,0,0,0,4.257-2.288H33.564a.325.325,0,0,1,.325.324v5.615H30.708a.589.589,0,1,0,0,1.179h1.024v1.181a2.049,2.049,0,0,0,2.046,2.046h.11Zm10.4-5.592a1.86,1.86,0,0,1-1.674,1.053H36.139V29.135h5.883a.589.589,0,0,0,0-1.179h-.456V24.21a.589.589,0,1,0-1.179,0v3.746H35.068v-5.1h.15a2.45,2.45,0,0,0,2.438-2.241h3.018a3.805,3.805,0,0,1,3.8,3.8v4.911a1.775,1.775,0,0,1-.183.8Z" transform="translate(-6.422 0)" fill="#697b93" stroke="#697b93" stroke-width="0.3"/>
        <path id="Path_14583" data-name="Path 14583" d="M46.839,161.069a.784.784,0,0,0,0-1.5l-5.754-1.738a1,1,0,0,0-.58,0l-5.754,1.738a.785.785,0,0,0-.419,1.193v1.948a.589.589,0,0,0,1.179,0V161.3l.894.27v2.715a1.012,1.012,0,0,0,.756.981l3.279.852a1.416,1.416,0,0,0,.712,0l3.279-.852a1.012,1.012,0,0,0,.756-.981v-2.716ZM40.8,158.976l4.448,1.343L40.8,161.663l-4.448-1.343Zm3.211,5.181-3.152.819a.236.236,0,0,1-.118,0l-3.152-.819v-2.232l2.921.882a1,1,0,0,0,.58,0l2.922-.882Z" transform="translate(-32.014 -145.388)" fill="#697b93"/>
      </g>
    </g>
  </g>
</svg>
