<svg xmlns="http://www.w3.org/2000/svg" width="45" height="45" viewBox="0 0 45 45">
  <g id="Fintech" transform="translate(-491 -312)">
    <rect id="Rectangle_1688" data-name="Rectangle 1688" width="45" height="45" transform="translate(491 312)" fill="none"/>
    <g id="bank-money-card-coin-financial" transform="translate(493 313.523)">
      <path id="Path_14584" data-name="Path 14584" d="M54.775,55a.925.925,0,0,1,0,1.85h-1.85a.925.925,0,0,1,0-1.85Z" transform="translate(-19.167 -20.316)" fill="#fae058"/>
      <path id="Path_14585" data-name="Path 14585" d="M35,48H51.033v1.85H35Z" transform="translate(-12.65 -17.632)" fill="#64c1f7"/>
      <circle id="Ellipse_12494" data-name="Ellipse 12494" cx="4" cy="4" r="4" transform="translate(28 12.477)" fill="#ffbf75"/>
      <path id="Path_14586" data-name="Path 14586" d="M52.633,33v2.467H44V33h8.633Z" transform="translate(-16.1 -11.882)" fill="#f9eb55"/>
      <path id="Path_14587" data-name="Path 14587" d="M53.633,41v2.467H45V41h8.633Z" transform="translate(-16.483 -14.949)" fill="#f9eb55"/>
      <path id="Path_14588" data-name="Path 14588" d="M55.633,37v2.467H47V37h8.633Z" transform="translate(-17.25 -13.416)" fill="#f9eb55"/>
      <path id="Path_14589" data-name="Path 14589" d="M34.933,15v1.85H30V15Z" transform="translate(-10.733 -4.982)" fill="#ececec"/>
      <path id="Path_14591" data-name="Path 14591" d="M34.933,31v1.85H30V31h4.933Z" transform="translate(-10.733 -11.116)" fill="#ececec"/>
      <path id="Path_14593" data-name="Path 14593" d="M22.933,15v1.85H18V15Z" transform="translate(-6.133 -4.982)" fill="#ececec"/>
      <path id="Path_14594" data-name="Path 14594" d="M22.933,31v1.85H18V31h4.933Z" transform="translate(-6.133 -11.116)" fill="#ececec"/>
      <path id="Path_14596" data-name="Path 14596" d="M10.933,31v1.85H6V31h4.933Z" transform="translate(-1.533 -11.116)" fill="#ececec"/>
      <path id="Path_14599" data-name="Path 14599" d="M25.967,6.083v1.85H5V6.083L15.483,3Z" transform="translate(-1.15 -0.382)" fill="#b7c1cd"/>
      <path id="Path_14600" data-name="Path 14600" d="M10.933,15v1.85H6V15Z" transform="translate(-1.533 -4.982)" fill="#ececec"/>
      <path id="Path_14601" data-name="Path 14601" d="M3,41H25.2V53.333H3Z" transform="translate(-0.383 -14.949)" fill="#95d600"/>
      <path id="Path_14602" data-name="Path 14602" d="M25.2,44.083V50.25a3.083,3.083,0,0,0-3.083,3.083H6.083A3.083,3.083,0,0,0,3,50.25V44.083A3.083,3.083,0,0,0,6.083,41H22.117A3.083,3.083,0,0,0,25.2,44.083Z" transform="translate(-0.383 -14.949)" fill="#fff"/>
      <path id="Path_14603" data-name="Path 14603" d="M2.617,24.818H26.05a.617.617,0,0,0,.617-.617V21.734a.617.617,0,0,0-.617-.617H24.817V19.884a.617.617,0,0,0-.617-.617h-.617V12.484H24.2a.617.617,0,0,0,.617-.617V10.634a.617.617,0,0,0,.617-.617V5.7a.617.617,0,0,0-.444-.592L14.506,2.026a.656.656,0,0,0-.345,0L3.677,5.109a.617.617,0,0,0-.444.592v4.317a.617.617,0,0,0,.617.617v1.233a.617.617,0,0,0,.617.617h.617v6.783H4.467a.617.617,0,0,0-.617.617v1.233H2.617A.617.617,0,0,0,2,21.734V24.2a.617.617,0,0,0,.617.617ZM23.583,11.251h-3.7v-.617h3.7ZM16.8,19.268h-.617V12.484H16.8a.617.617,0,0,0,.617-.617V10.634H18.65v1.233a.617.617,0,0,0,.617.617h.617v6.783h-.617a.617.617,0,0,0-.617.617v1.233H17.417V19.884A.617.617,0,0,0,16.8,19.268Zm-7.4,0H8.783V12.484H9.4a.617.617,0,0,0,.617-.617V10.634H11.25v1.233a.617.617,0,0,0,.617.617h.617v6.783h-.617a.617.617,0,0,0-.617.617v1.233H10.017V19.884A.617.617,0,0,0,9.4,19.268ZM5.083,11.251v-.617h3.7v.617ZM7.55,12.484v6.783H6.317V12.484ZM12.483,20.5h3.7v.617h-3.7Zm1.233-1.233V12.484H14.95v6.783Zm-1.233-8.017v-.617h3.7v.617Zm7.4,9.25h3.7v.617h-3.7Zm1.233-1.233V12.484H22.35v6.783ZM4.467,6.163l9.867-2.9,9.867,2.9v.771H4.467Zm0,3.238V8.168H24.2V9.4Zm.617,11.1h3.7v.617h-3.7Zm-1.85,1.85h22.2v1.233H3.233Z" transform="translate(0)" fill="#697b93" stroke="#697b93" stroke-width="0.2"/>
      <path id="Path_14606" data-name="Path 14606" d="M19.542,47.85h.617a.308.308,0,0,1,.308.308H21.7a1.542,1.542,0,0,0-1.233-1.51V46H19.233v.648a1.542,1.542,0,0,0,.308,3.052h.617a.308.308,0,0,1,0,.617h-.617a.308.308,0,0,1-.308-.308H18a1.542,1.542,0,0,0,1.233,1.51v.648h1.233v-.648a1.542,1.542,0,0,0-.308-3.052h-.617a.308.308,0,0,1,0-.617Z" transform="translate(-6.133 -16.866)" fill="#697b93"/>
      <path id="Path_14607" data-name="Path 14607" d="M17.933,43a4.933,4.933,0,1,0,4.933,4.933A4.933,4.933,0,0,0,17.933,43Zm0,8.633a3.7,3.7,0,1,1,3.7-3.7A3.7,3.7,0,0,1,17.933,51.633Z" transform="translate(-4.217 -15.716)" fill="#697b93"/>
      <path id="Path_14608" data-name="Path 14608" d="M52.542,57.083h1.85a1.542,1.542,0,1,0,0-3.083h-1.85a1.542,1.542,0,0,0,0,3.083Zm0-1.85h1.85a.308.308,0,1,1,0,.617h-1.85a.308.308,0,1,1,0-.617Z" transform="translate(-18.783 -19.932)" fill="#697b93"/>
      <path id="Path_14609" data-name="Path 14609" d="M38.383,32.793A.617.617,0,0,0,39,32.176V29.709a.617.617,0,0,0-.617-.617H37.15v-1.85a.617.617,0,0,0-.617-.617H35.466a4.933,4.933,0,1,0-6.5,0H27.9a.617.617,0,0,0-.617.617v2.467a.617.617,0,0,0,.617.617h1.233v1.233h-.617a.617.617,0,0,0-.617.617v1.85H25.433v-1.85a.617.617,0,0,0-.617-.617H2.617A.617.617,0,0,0,2,32.176V44.509a.617.617,0,0,0,.617.617h35.15A1.237,1.237,0,0,0,39,43.893V35.259a1.237,1.237,0,0,0-1.233-1.233V32.793Zm-35.15,0H5a2.477,2.477,0,0,1-1.764,1.764Zm0,11.1V42.129A2.477,2.477,0,0,1,5,43.893Zm20.967,0H22.436A2.477,2.477,0,0,1,24.2,42.129Zm0-3.028a3.7,3.7,0,0,0-3.028,3.028H6.261a3.7,3.7,0,0,0-3.028-3.028V35.821a3.7,3.7,0,0,0,3.028-3.028H21.172A3.7,3.7,0,0,0,24.2,35.821Zm0-6.308a2.477,2.477,0,0,1-1.764-1.764H24.2Zm4.317-11.63a3.7,3.7,0,1,1,3.7,3.7A3.7,3.7,0,0,1,28.517,22.926Zm0,6.167V27.859h7.4v1.233Zm.617,3.7h7.4v1.233h-7.4Zm8.633,11.1H25.433V38.959H37.767Zm0-6.167H25.433v-.617H37.767Zm0-1.85H25.433v-.617H37.767Zm-7.4-4.317V30.326h7.4v1.233Z" transform="translate(0 -6.125)" fill="#697b93" stroke="#697b93" stroke-width="0.2"/>
      <path id="Path_14610" data-name="Path 14610" d="M50.157,25.317h-.617a.308.308,0,0,1-.308-.308H48a1.542,1.542,0,0,0,1.234,1.511v.647h1.233v-.648a1.542,1.542,0,0,0-.308-3.052h-.617a.308.308,0,0,1,0-.617h.617a.308.308,0,0,1,.308.308H51.7a1.542,1.542,0,0,0-1.234-1.511V21H49.232v.647a1.542,1.542,0,0,0,.308,3.052h.617a.308.308,0,0,1,0,.617Z" transform="translate(-17.632 -7.282)" fill="#697b93"/>
    </g>
  </g>
</svg>
