<svg xmlns="http://www.w3.org/2000/svg" width="45" height="45" viewBox="0 0 45 45">
  <g id="Foodtech" transform="translate(-578 -232)">
    <rect id="Rectangle_1688" data-name="Rectangle 1688" width="45" height="45" transform="translate(578 232)" fill="none"/>
    <g id="eat" transform="translate(581 183.663)">
      <circle id="Ellipse_12496" data-name="Ellipse 12496" cx="2.781" cy="2.781" r="2.781" transform="translate(15.721 61.231) rotate(-13.3)" fill="#ffbf75"/>
      <path id="Path_14626" data-name="Path 14626" d="M43.3,390.182H8.7a1.2,1.2,0,0,1-1.2-1.2v-1.21a2.4,2.4,0,0,1,2.4-2.4H42.106a2.4,2.4,0,0,1,2.4,2.4v1.21A1.2,1.2,0,0,1,43.3,390.182Z" transform="translate(-6.934 -305.134)" fill="#31c0ff"/>
      <path id="Path_14627" data-name="Path 14627" d="M23.27,385.37H9.9a2.4,2.4,0,0,0-2.4,2.4v1.21a1.2,1.2,0,0,0,1.2,1.2H24.947C23.676,389.353,22.951,387.151,23.27,385.37Z" transform="translate(-6.934 -305.134)" fill="#31c0ff"/>
      <path id="Path_14628" data-name="Path 14628" d="M80.435,197.742a15.31,15.31,0,0,0-30.621,0Z" transform="translate(-46.056 -117.507)" fill="#a2ddfd"/>
      <path id="Path_14629" data-name="Path 14629" d="M80.435,197.742a15.31,15.31,0,0,0-30.621,0Z" transform="translate(-46.056 -117.507)" fill="#b7c1cd"/>
      <path id="Path_14631" data-name="Path 14631" d="M175.946,211.6l-4.3-4.3-9.424,7.6a3.482,3.482,0,0,0-.276,5.173l1.228,1.228a3.482,3.482,0,0,0,5.173-.276Z" transform="translate(-148.783 -140.496)" fill="#f5de46"/>
      <path id="Path_14632" data-name="Path 14632" d="M247.007,210.7a8.473,8.473,0,0,0,1.487,2l1.629,1.629a8.475,8.475,0,0,0,2,1.487l3.409-4.225-4.3-4.3Z" transform="translate(-228.372 -140.495)" fill="#eed076"/>
      <path id="Path_14633" data-name="Path 14633" d="M279.489,71.508l-3.772,3.772a1.382,1.382,0,0,1-1.955-1.955l3.772-3.772A1.523,1.523,0,0,0,275.38,67.4l-3.772,3.772a1.382,1.382,0,1,1-1.955-1.955l3.772-3.772a1.523,1.523,0,1,0-2.153-2.153l-5.522,5.522a6.181,6.181,0,0,0,0,8.741l1.629,1.629a6.181,6.181,0,0,0,8.741,0l5.522-5.522a1.523,1.523,0,0,0-2.153-2.154Z" transform="translate(-244.027 -6.942)" fill="#f5de46"/>
      <path id="Path_14634" data-name="Path 14634" d="M35.171,79.67h-.237a15.837,15.837,0,0,0-2.109-7.361l5.19-5.19a2.089,2.089,0,0,0-2.954-2.954L31.29,67.938a.817.817,0,0,1-1.155-1.155l3.772-3.772a2.089,2.089,0,0,0-2.954-2.954l-3.772,3.772a.817.817,0,1,1-1.155-1.155L29.8,58.9a2.089,2.089,0,0,0-2.954-2.954l-5.21,5.21a3.345,3.345,0,0,0-5.627,3.5A15.822,15.822,0,0,0,11.5,66.276a.566.566,0,0,0,.54.994A14.755,14.755,0,0,1,19.392,65.5a6.784,6.784,0,0,0,.371,3.077l-6.683,5.391a4.049,4.049,0,0,0-.6,5.707H4.336A14.676,14.676,0,0,1,9.872,68.71a.566.566,0,1,0-.706-.884A15.8,15.8,0,0,0,3.2,79.669H2.965A2.969,2.969,0,0,0,0,82.635v1.21a1.77,1.77,0,0,0,1.768,1.768H30.593a.566.566,0,0,0,0-1.132H1.768a.637.637,0,0,1-.636-.636v-1.21A1.836,1.836,0,0,1,2.966,80.8h10.62l.4.4A4.049,4.049,0,0,0,20,80.883l.066-.082h15.1a1.836,1.836,0,0,1,1.834,1.834v1.21a.637.637,0,0,1-.636.636H33.312a.566.566,0,0,0,0,1.132h3.058a1.77,1.77,0,0,0,1.768-1.768v-1.21a2.969,2.969,0,0,0-2.966-2.966Zm-13.048-17.4,5.522-5.522A.957.957,0,1,1,29,58.1l-3.772,3.772a1.948,1.948,0,1,0,2.755,2.755l3.772-3.772a.957.957,0,0,1,1.353,1.353l-3.772,3.772a1.948,1.948,0,0,0,2.755,2.755l3.772-3.772a.957.957,0,1,1,1.353,1.353l-5.522,5.522a5.621,5.621,0,0,1-7.941,0l-1.629-1.629a5.615,5.615,0,0,1,0-7.941Zm-2.509,2.1a15.618,15.618,0,0,0-2.425.1,2.213,2.213,0,0,1,3.664-2.479,6.7,6.7,0,0,0-1.238,2.376Zm-.493,15.8a2.918,2.918,0,0,1-4.332.231l-1.228-1.228a2.918,2.918,0,0,1,.231-4.332l6.466-5.216a6.732,6.732,0,0,0,1.065,1.385l1.629,1.629a6.736,6.736,0,0,0,1.385,1.065Zm1.86-.5L25.392,74.2a6.755,6.755,0,0,0,6.585-1.093A14.709,14.709,0,0,1,33.8,79.67Z" transform="translate(0)" fill="#697b93" stroke="#697b93" stroke-width="0.5"/>
    </g>
  </g>
</svg>
