<svg xmlns="http://www.w3.org/2000/svg" width="45" height="45" viewBox="0 0 45 45">
  <g id="Healthcare" transform="translate(-491 -139)">
    <rect id="Rectangle_1686" data-name="Rectangle 1686" width="45" height="45" transform="translate(491 139)" fill="none"/>
    <g id="heart" transform="translate(494.375 118.095)">
      <g id="Group_6568" data-name="Group 6568" transform="translate(0.753 26.658)">
        <path id="Path_14556" data-name="Path 14556" d="M114.136,303.1h0l9.358-3.459a2.259,2.259,0,0,1,1.784,4.149c-.151.071-11.206,5.487-15.724,5.487-6.024,0-7.53-3.012-13.553-3.012v-9.036c1.813,0,4.217-2.9,8.068-.733l3.635,2.045a1.5,1.5,0,0,0,.739.193h4.876a2.259,2.259,0,0,1,.818,4.364Z" transform="translate(-89.525 -276.13)" fill="#fce8d0"/>
        <path id="Path_14557" data-name="Path 14557" d="M211.821,35.9c4.7,0,11.135,7.292-5.269,18.085C190.12,43.179,196.623,35.9,201.283,35.9a6.5,6.5,0,0,1,5.268,3.026A6.5,6.5,0,0,1,211.821,35.9Z" transform="translate(-181.996 -35.905)" fill="#ff7b79"/>
        <path id="Path_14558" data-name="Path 14558" d="M16.475,326.637H10V316.1h6.475Z" transform="translate(-10 -294.998)" fill="#31c0ff"/>
      </g>
      <g id="Group_6569" data-name="Group 6569" transform="translate(0 25.905)">
        <path id="Path_14559" data-name="Path 14559" d="M.753,299.222H7.228a.753.753,0,0,0,.753-.753v-.736a16.074,16.074,0,0,1,5.744,1.435,17.122,17.122,0,0,0,7.056,1.56,20.873,20.873,0,0,0,6.117-1.386.753.753,0,0,0-.49-1.424,19.59,19.59,0,0,1-5.627,1.3,15.651,15.651,0,0,1-6.5-1.452,17.487,17.487,0,0,0-6.3-1.544v-7.65A9.273,9.273,0,0,0,9.455,288c1.484-.677,3.167-1.445,5.472-.148l3.635,2.045a2.262,2.262,0,0,0,1.108.29h4.876a1.506,1.506,0,0,1,.543,2.91,1.484,1.484,0,0,1-.543.1H16.892a.753.753,0,1,0,0,1.506h7.655a2.981,2.981,0,0,0,1.061-.194l.018-.006,9.369-3.464a1.507,1.507,0,0,1,2.051,1.4,1.514,1.514,0,0,1-.861,1.362l-.507.243-.218-.436a.753.753,0,0,0-1.347.674l.2.4c-.493.226-1.053.479-1.666.749a.753.753,0,0,0,.607,1.378c1.481-.652,2.461-1.114,3.574-1.647a3.012,3.012,0,0,0-1.288-5.735,3,3,0,0,0-1.084.2L27.514,292.2a2.964,2.964,0,0,0,.045-.509,3.015,3.015,0,0,0-3.012-3.012H19.67a.753.753,0,0,1-.369-.1l-3.635-2.045c-2.973-1.672-5.206-.653-6.836.091a4.681,4.681,0,0,1-1.6.545H.753a.753.753,0,0,0-.753.753v10.541a.753.753,0,0,0,.753.753Zm.753-10.541h4.97v9.036H1.506Z" transform="translate(0 -266.077)" fill="#697b93" stroke="#697b93" stroke-width="0.5"/>
        <path id="Path_14560" data-name="Path 14560" d="M196.912,45.372a.753.753,0,0,0,.828,0c11.045-7.267,11.409-12.644,10.643-15.2a6.147,6.147,0,0,0-5.787-4.265,6.962,6.962,0,0,0-5.269,2.521,6.962,6.962,0,0,0-5.268-2.521,6.148,6.148,0,0,0-5.785,4.272C185.507,32.734,185.872,38.108,196.912,45.372Zm-9.2-14.763a4.674,4.674,0,0,1,4.342-3.2,5.686,5.686,0,0,1,4.62,2.655.753.753,0,0,0,1.3,0,5.738,5.738,0,0,1,4.619-2.653A4.672,4.672,0,0,1,206.94,30.6c.513,1.714.582,6.4-9.614,13.237C187.134,37.009,187.2,32.322,187.716,30.61Z" transform="translate(-172.018 -25.905)" fill="#697b93" stroke="#697b93" stroke-width="0.5"/>
        <path id="Path_14561" data-name="Path 14561" d="M286.753,110.613h2.259v2.259a.753.753,0,1,0,1.506,0v-2.259h2.259a.753.753,0,1,0,0-1.506h-2.259v-2.259a.753.753,0,1,0-1.506,0v2.259h-2.259a.753.753,0,1,0,0,1.506Z" transform="translate(-264.465 -100.057)" fill="#fff"/>
        <circle id="Ellipse_12491" data-name="Ellipse 12491" cx="0.753" cy="0.753" r="0.753" transform="translate(29.064 30.585)" fill="#697b93"/>
      </g>
    </g>
  </g>
</svg>
